<svg width="576" height="448" viewBox="0 0 576 448" fill="none" xmlns="http://www.w3.org/2000/svg">
<path d="M70.5 350.5V360.5" stroke="#08183A" stroke-width="0.5"/>
<g filter="url(#filter0_d_58_26)">
<rect x="28" y="28" width="512" height="384" rx="10" fill="white"/>
</g>
<path d="M75.8097 63.4545C75.8097 64.8523 75.554 66.054 75.0426 67.0597C74.5313 68.0611 73.8303 68.8324 72.9396 69.3736C72.0533 69.9105 71.0455 70.179 69.9162 70.179C68.7827 70.179 67.7706 69.9105 66.88 69.3736C65.9936 68.8324 65.2947 68.0589 64.7834 67.0533C64.272 66.0476 64.0163 64.848 64.0163 63.4545C64.0163 62.0568 64.272 60.8572 64.7834 59.8558C65.2947 58.8501 65.9936 58.0788 66.88 57.5419C67.7706 57.0007 68.7827 56.7301 69.9162 56.7301C71.0455 56.7301 72.0533 57.0007 72.9396 57.5419C73.8303 58.0788 74.5313 58.8501 75.0426 59.8558C75.554 60.8572 75.8097 62.0568 75.8097 63.4545ZM73.8537 63.4545C73.8537 62.3892 73.6811 61.4922 73.3359 60.7635C72.995 60.0305 72.5263 59.4766 71.9297 59.1016C71.3374 58.7223 70.6662 58.5327 69.9162 58.5327C69.1619 58.5327 68.4886 58.7223 67.8963 59.1016C67.304 59.4766 66.8352 60.0305 66.4901 60.7635C66.1491 61.4922 65.9787 62.3892 65.9787 63.4545C65.9787 64.5199 66.1491 65.419 66.4901 66.152C66.8352 66.8807 67.304 67.4347 67.8963 67.8139C68.4886 68.1889 69.1619 68.3764 69.9162 68.3764C70.6662 68.3764 71.3374 68.1889 71.9297 67.8139C72.5263 67.4347 72.995 66.8807 73.3359 66.152C73.6811 65.419 73.8537 64.5199 73.8537 63.4545ZM86.5179 60.1818L82.9576 70H80.9121L77.3453 60.1818H79.3972L81.8837 67.7372H81.986L84.4661 60.1818H86.5179ZM92.2116 70.1982C91.2443 70.1982 90.4112 69.9915 89.7124 69.5781C89.0178 69.1605 88.4808 68.5746 88.1016 67.8203C87.7266 67.0618 87.5391 66.1733 87.5391 65.1548C87.5391 64.1491 87.7266 63.2628 88.1016 62.4957C88.4808 61.7287 89.0092 61.13 89.6868 60.6996C90.3686 60.2692 91.1655 60.054 92.0774 60.054C92.6314 60.054 93.1683 60.1456 93.6882 60.3288C94.2081 60.5121 94.6747 60.7997 95.0881 61.1918C95.5014 61.5838 95.8274 62.093 96.0661 62.7195C96.3047 63.3416 96.424 64.098 96.424 64.9886V65.6662H88.6193V64.2344H94.5511C94.5511 63.7315 94.4489 63.2862 94.2443 62.8984C94.0398 62.5064 93.7521 62.1974 93.3814 61.9716C93.0149 61.7457 92.5845 61.6328 92.0902 61.6328C91.5533 61.6328 91.0845 61.7649 90.6839 62.0291C90.2876 62.2891 89.9808 62.63 89.7635 63.0518C89.5504 63.4695 89.4439 63.9233 89.4439 64.4134V65.532C89.4439 66.1882 89.5589 66.7464 89.7891 67.2067C90.0234 67.6669 90.3494 68.0185 90.767 68.2614C91.1847 68.5 91.6726 68.6193 92.2308 68.6193C92.593 68.6193 92.9233 68.5682 93.2216 68.4659C93.5199 68.3594 93.7777 68.2017 93.995 67.9929C94.2124 67.7841 94.3786 67.5263 94.4936 67.2195L96.3026 67.5455C96.1577 68.0781 95.8977 68.5447 95.5227 68.9453C95.152 69.3416 94.6854 69.6506 94.1229 69.8722C93.5646 70.0895 92.9276 70.1982 92.2116 70.1982ZM98.5446 70V60.1818H100.392V61.7415H100.494C100.673 61.2131 100.988 60.7976 101.44 60.495C101.896 60.1882 102.412 60.0348 102.987 60.0348C103.106 60.0348 103.247 60.0391 103.409 60.0476C103.575 60.0561 103.705 60.0668 103.799 60.0795V61.9077C103.722 61.8864 103.586 61.8629 103.39 61.8374C103.194 61.8075 102.998 61.7926 102.802 61.7926C102.35 61.7926 101.947 61.8885 101.594 62.0803C101.244 62.2678 100.967 62.5298 100.763 62.8665C100.558 63.1989 100.456 63.5781 100.456 64.0043V70H98.5446ZM114.151 60.1818L110.59 70H108.545L104.978 60.1818H107.03L109.517 67.7372H109.619L112.099 60.1818H114.151ZM115.947 70V60.1818H117.858V70H115.947ZM116.912 58.6669C116.58 58.6669 116.294 58.5561 116.056 58.3345C115.821 58.1087 115.704 57.8402 115.704 57.5291C115.704 57.2138 115.821 56.9453 116.056 56.7237C116.294 56.4979 116.58 56.3849 116.912 56.3849C117.244 56.3849 117.528 56.4979 117.762 56.7237C118.001 56.9453 118.12 57.2138 118.12 57.5291C118.12 57.8402 118.001 58.1087 117.762 58.3345C117.528 58.5561 117.244 58.6669 116.912 58.6669ZM124.661 70.1982C123.694 70.1982 122.86 69.9915 122.162 69.5781C121.467 69.1605 120.93 68.5746 120.551 67.8203C120.176 67.0618 119.988 66.1733 119.988 65.1548C119.988 64.1491 120.176 63.2628 120.551 62.4957C120.93 61.7287 121.458 61.13 122.136 60.6996C122.818 60.2692 123.615 60.054 124.527 60.054C125.081 60.054 125.618 60.1456 126.137 60.3288C126.657 60.5121 127.124 60.7997 127.537 61.1918C127.951 61.5838 128.277 62.093 128.515 62.7195C128.754 63.3416 128.873 64.098 128.873 64.9886V65.6662H121.069V64.2344H127C127 63.7315 126.898 63.2862 126.694 62.8984C126.489 62.5064 126.201 62.1974 125.831 61.9716C125.464 61.7457 125.034 61.6328 124.539 61.6328C124.002 61.6328 123.534 61.7649 123.133 62.0291C122.737 62.2891 122.43 62.63 122.213 63.0518C122 63.4695 121.893 63.9233 121.893 64.4134V65.532C121.893 66.1882 122.008 66.7464 122.238 67.2067C122.473 67.6669 122.799 68.0185 123.216 68.2614C123.634 68.5 124.122 68.6193 124.68 68.6193C125.042 68.6193 125.373 68.5682 125.671 68.4659C125.969 68.3594 126.227 68.2017 126.444 67.9929C126.662 67.7841 126.828 67.5263 126.943 67.2195L128.752 67.5455C128.607 68.0781 128.347 68.5447 127.972 68.9453C127.601 69.3416 127.135 69.6506 126.572 69.8722C126.014 70.0895 125.377 70.1982 124.661 70.1982ZM133.105 70L130.216 60.1818H132.191L134.115 67.392H134.211L136.141 60.1818H138.116L140.034 67.3601H140.13L142.041 60.1818H144.016L141.133 70H139.184L137.189 62.9112H137.042L135.048 70H133.105Z" fill="#08183A"/>
<path d="M393.58 60.2102V59.2727H400.125V60.2102H397.381V68H396.324V60.2102H393.58ZM403.415 68.1364C402.784 68.1364 402.24 67.9972 401.783 67.7188C401.328 67.4375 400.977 67.0455 400.73 66.5426C400.486 66.0369 400.364 65.4489 400.364 64.7784C400.364 64.108 400.486 63.517 400.73 63.0057C400.977 62.4915 401.321 62.0909 401.761 61.804C402.205 61.5142 402.722 61.3693 403.312 61.3693C403.653 61.3693 403.99 61.4261 404.322 61.5398C404.655 61.6534 404.957 61.8381 405.23 62.0938C405.503 62.3466 405.72 62.6818 405.882 63.0994C406.044 63.517 406.125 64.0312 406.125 64.642V65.0682H401.08V64.1989H405.102C405.102 63.8295 405.028 63.5 404.881 63.2102C404.736 62.9205 404.528 62.6918 404.259 62.5241C403.991 62.3565 403.676 62.2727 403.312 62.2727C402.912 62.2727 402.565 62.3722 402.273 62.571C401.983 62.767 401.76 63.0227 401.604 63.3381C401.447 63.6534 401.369 63.9915 401.369 64.3523V64.9318C401.369 65.4261 401.455 65.8452 401.625 66.1889C401.798 66.5298 402.038 66.7898 402.345 66.9688C402.652 67.1449 403.009 67.233 403.415 67.233C403.679 67.233 403.918 67.196 404.131 67.1222C404.347 67.0455 404.533 66.9318 404.689 66.7812C404.845 66.6278 404.966 66.4375 405.051 66.2102L406.023 66.483C405.92 66.8125 405.749 67.1023 405.507 67.3523C405.266 67.5994 404.967 67.7926 404.612 67.9318C404.257 68.0682 403.858 68.1364 403.415 68.1364ZM409.581 68.1534C409.166 68.1534 408.79 68.0753 408.452 67.919C408.114 67.7599 407.845 67.5312 407.646 67.233C407.447 66.9318 407.348 66.5682 407.348 66.142C407.348 65.767 407.422 65.4631 407.57 65.2301C407.717 64.9943 407.915 64.8097 408.162 64.6761C408.409 64.5426 408.682 64.4432 408.98 64.3778C409.281 64.3097 409.584 64.2557 409.888 64.2159C410.286 64.1648 410.608 64.1264 410.855 64.1009C411.105 64.0724 411.287 64.0256 411.401 63.9602C411.517 63.8949 411.575 63.7812 411.575 63.6193V63.5852C411.575 63.1648 411.46 62.8381 411.23 62.6051C411.003 62.3722 410.658 62.2557 410.195 62.2557C409.714 62.2557 409.338 62.3608 409.065 62.571C408.793 62.7812 408.601 63.0057 408.49 63.2443L407.536 62.9034C407.706 62.5057 407.933 62.196 408.217 61.9744C408.504 61.75 408.817 61.5937 409.155 61.5057C409.496 61.4148 409.831 61.3693 410.161 61.3693C410.371 61.3693 410.612 61.3949 410.885 61.446C411.161 61.4943 411.426 61.5952 411.682 61.7486C411.94 61.902 412.155 62.1335 412.325 62.4432C412.496 62.7528 412.581 63.1676 412.581 63.6875V68H411.575V67.1136H411.524C411.456 67.2557 411.342 67.4077 411.183 67.5696C411.024 67.7315 410.813 67.8693 410.548 67.983C410.284 68.0966 409.962 68.1534 409.581 68.1534ZM409.734 67.25C410.132 67.25 410.467 67.1719 410.74 67.0156C411.016 66.8594 411.223 66.6577 411.362 66.4105C411.504 66.1634 411.575 65.9034 411.575 65.6307V64.7102C411.533 64.7614 411.439 64.8082 411.294 64.8509C411.152 64.8906 410.987 64.9261 410.8 64.9574C410.615 64.9858 410.435 65.0114 410.259 65.0341C410.085 65.054 409.945 65.071 409.837 65.0852C409.575 65.1193 409.331 65.1747 409.104 65.2514C408.879 65.3253 408.697 65.4375 408.558 65.5881C408.422 65.7358 408.354 65.9375 408.354 66.1932C408.354 66.5426 408.483 66.8068 408.741 66.9858C409.003 67.1619 409.334 67.25 409.734 67.25ZM417.076 68.1364C416.462 68.1364 415.934 67.9915 415.49 67.7017C415.047 67.4119 414.706 67.0128 414.468 66.5043C414.229 65.9957 414.11 65.4148 414.11 64.7614C414.11 64.0966 414.232 63.5099 414.476 63.0014C414.723 62.4901 415.067 62.0909 415.507 61.804C415.951 61.5142 416.468 61.3693 417.059 61.3693C417.519 61.3693 417.934 61.4545 418.303 61.625C418.672 61.7955 418.975 62.0341 419.211 62.3409C419.446 62.6477 419.593 63.0057 419.65 63.4148H418.644C418.567 63.1165 418.397 62.8523 418.132 62.6222C417.871 62.3892 417.519 62.2727 417.076 62.2727C416.684 62.2727 416.34 62.375 416.044 62.5795C415.752 62.7812 415.523 63.0668 415.358 63.4361C415.196 63.8026 415.115 64.233 415.115 64.7273C415.115 65.233 415.195 65.6733 415.354 66.0483C415.516 66.4233 415.743 66.7145 416.036 66.9219C416.331 67.1293 416.678 67.233 417.076 67.233C417.337 67.233 417.574 67.1875 417.787 67.0966C418 67.0057 418.181 66.875 418.328 66.7045C418.476 66.5341 418.581 66.3295 418.644 66.0909H419.65C419.593 66.4773 419.452 66.8253 419.228 67.1349C419.006 67.4418 418.712 67.6861 418.346 67.8679C417.982 68.0469 417.559 68.1364 417.076 68.1364ZM422.125 64.0625V68H421.12V59.2727H422.125V62.4773H422.211C422.364 62.1392 422.594 61.8707 422.901 61.6719C423.211 61.4702 423.623 61.3693 424.137 61.3693C424.583 61.3693 424.973 61.4588 425.309 61.6378C425.644 61.8139 425.904 62.0852 426.088 62.4517C426.276 62.8153 426.37 63.2784 426.37 63.8409V68H425.364V63.9091C425.364 63.3892 425.229 62.9872 424.959 62.7031C424.692 62.4162 424.321 62.2727 423.847 62.2727C423.517 62.2727 423.222 62.3423 422.961 62.4815C422.702 62.6207 422.498 62.8239 422.347 63.0909C422.199 63.358 422.125 63.6818 422.125 64.0625ZM430.954 68.1364C430.323 68.1364 429.779 67.9972 429.322 67.7188C428.867 67.4375 428.516 67.0455 428.269 66.5426C428.025 66.0369 427.903 65.4489 427.903 64.7784C427.903 64.108 428.025 63.517 428.269 63.0057C428.516 62.4915 428.86 62.0909 429.3 61.804C429.744 61.5142 430.261 61.3693 430.852 61.3693C431.192 61.3693 431.529 61.4261 431.862 61.5398C432.194 61.6534 432.496 61.8381 432.769 62.0938C433.042 62.3466 433.259 62.6818 433.421 63.0994C433.583 63.517 433.664 64.0312 433.664 64.642V65.0682H428.619V64.1989H432.641C432.641 63.8295 432.567 63.5 432.42 63.2102C432.275 62.9205 432.067 62.6918 431.798 62.5241C431.531 62.3565 431.215 62.2727 430.852 62.2727C430.451 62.2727 430.104 62.3722 429.812 62.571C429.522 62.767 429.299 63.0227 429.143 63.3381C428.987 63.6534 428.908 63.9915 428.908 64.3523V64.9318C428.908 65.4261 428.994 65.8452 429.164 66.1889C429.337 66.5298 429.577 66.7898 429.884 66.9688C430.191 67.1449 430.548 67.233 430.954 67.233C431.218 67.233 431.457 67.196 431.67 67.1222C431.886 67.0455 432.072 66.9318 432.228 66.7812C432.384 66.6278 432.505 66.4375 432.59 66.2102L433.562 66.483C433.46 66.8125 433.288 67.1023 433.046 67.3523C432.805 67.5994 432.506 67.7926 432.151 67.9318C431.796 68.0682 431.397 68.1364 430.954 68.1364ZM435.194 68V61.4545H436.165V62.4432H436.234C436.353 62.1193 436.569 61.8565 436.881 61.6548C437.194 61.4531 437.546 61.3523 437.938 61.3523C438.012 61.3523 438.104 61.3537 438.215 61.3565C438.326 61.3594 438.41 61.3636 438.467 61.3693V62.392C438.433 62.3835 438.354 62.3707 438.232 62.3537C438.113 62.3338 437.987 62.3239 437.853 62.3239C437.535 62.3239 437.251 62.3906 437.001 62.5241C436.754 62.6548 436.558 62.8366 436.413 63.0696C436.271 63.2997 436.2 63.5625 436.2 63.858V68H435.194Z" fill="#08183A"/>
<path d="M63.3977 374.273H64.4545V380.511C64.4545 381.068 64.3523 381.541 64.1477 381.93C63.9432 382.32 63.6548 382.615 63.2827 382.817C62.9105 383.018 62.4716 383.119 61.9659 383.119C61.4886 383.119 61.0639 383.033 60.6918 382.859C60.3196 382.683 60.027 382.433 59.8139 382.109C59.6009 381.786 59.4943 381.401 59.4943 380.955H60.5341C60.5341 381.202 60.5952 381.418 60.7173 381.602C60.8423 381.784 61.0128 381.926 61.2287 382.028C61.4446 382.131 61.6903 382.182 61.9659 382.182C62.2699 382.182 62.5284 382.118 62.7415 381.99C62.9545 381.862 63.1165 381.675 63.2273 381.428C63.3409 381.178 63.3977 380.872 63.3977 380.511V374.273ZM68.3622 383.153C67.9474 383.153 67.571 383.075 67.233 382.919C66.8949 382.76 66.6264 382.531 66.4276 382.233C66.2287 381.932 66.1293 381.568 66.1293 381.142C66.1293 380.767 66.2031 380.463 66.3509 380.23C66.4986 379.994 66.696 379.81 66.9432 379.676C67.1903 379.543 67.4631 379.443 67.7614 379.378C68.0625 379.31 68.3651 379.256 68.669 379.216C69.0668 379.165 69.3892 379.126 69.6364 379.101C69.8864 379.072 70.0682 379.026 70.1818 378.96C70.2983 378.895 70.3565 378.781 70.3565 378.619V378.585C70.3565 378.165 70.2415 377.838 70.0114 377.605C69.7841 377.372 69.4389 377.256 68.9759 377.256C68.4957 377.256 68.1193 377.361 67.8466 377.571C67.5739 377.781 67.3821 378.006 67.2713 378.244L66.3168 377.903C66.4872 377.506 66.7145 377.196 66.9986 376.974C67.2855 376.75 67.598 376.594 67.9361 376.506C68.277 376.415 68.6122 376.369 68.9418 376.369C69.152 376.369 69.3935 376.395 69.6662 376.446C69.9418 376.494 70.2074 376.595 70.4631 376.749C70.7216 376.902 70.9361 377.134 71.1065 377.443C71.277 377.753 71.3622 378.168 71.3622 378.688V383H70.3565V382.114H70.3054C70.2372 382.256 70.1236 382.408 69.9645 382.57C69.8054 382.732 69.5938 382.869 69.3295 382.983C69.0653 383.097 68.7429 383.153 68.3622 383.153ZM68.5156 382.25C68.9134 382.25 69.2486 382.172 69.5213 382.016C69.7969 381.859 70.0043 381.658 70.1435 381.411C70.2855 381.163 70.3565 380.903 70.3565 380.631V379.71C70.3139 379.761 70.2202 379.808 70.0753 379.851C69.9332 379.891 69.7685 379.926 69.581 379.957C69.3963 379.986 69.2159 380.011 69.0398 380.034C68.8665 380.054 68.7259 380.071 68.6179 380.085C68.3565 380.119 68.1122 380.175 67.8849 380.251C67.6605 380.325 67.4787 380.437 67.3395 380.588C67.2031 380.736 67.1349 380.937 67.1349 381.193C67.1349 381.543 67.2642 381.807 67.5227 381.986C67.7841 382.162 68.1151 382.25 68.5156 382.25ZM74.2035 379.062V383H73.1978V376.455H74.1694V377.477H74.2546C74.408 377.145 74.641 376.878 74.9535 376.676C75.266 376.472 75.6694 376.369 76.1637 376.369C76.6069 376.369 76.9947 376.46 77.3271 376.642C77.6594 376.821 77.918 377.094 78.1026 377.46C78.2873 377.824 78.3796 378.284 78.3796 378.841V383H77.3739V378.909C77.3739 378.395 77.2404 377.994 76.9734 377.707C76.7063 377.418 76.3398 377.273 75.8739 377.273C75.5529 377.273 75.266 377.342 75.0131 377.482C74.7631 377.621 74.5657 377.824 74.4208 378.091C74.2759 378.358 74.2035 378.682 74.2035 379.062Z" fill="#08183A"/>
<path d="M50.9034 355V354.233L53.7841 351.08C54.1222 350.71 54.4006 350.389 54.6193 350.116C54.8381 349.841 55 349.582 55.1051 349.341C55.2131 349.097 55.267 348.841 55.267 348.574C55.267 348.267 55.1932 348.001 55.0455 347.777C54.9006 347.553 54.7017 347.379 54.4489 347.257C54.196 347.135 53.9119 347.074 53.5966 347.074C53.2614 347.074 52.9688 347.143 52.7188 347.283C52.4716 347.419 52.2798 347.611 52.1435 347.858C52.0099 348.105 51.9432 348.395 51.9432 348.727H50.9375C50.9375 348.216 51.0554 347.767 51.2912 347.381C51.527 346.994 51.848 346.693 52.2543 346.477C52.6634 346.261 53.1222 346.153 53.6307 346.153C54.142 346.153 54.5952 346.261 54.9901 346.477C55.3849 346.693 55.6946 346.984 55.919 347.351C56.1435 347.717 56.2557 348.125 56.2557 348.574C56.2557 348.895 56.1974 349.209 56.081 349.516C55.9673 349.82 55.7685 350.159 55.4844 350.534C55.2031 350.906 54.8125 351.361 54.3125 351.898L52.3523 353.994V354.062H56.4091V355H50.9034ZM61.0156 355.119C60.3736 355.119 59.8267 354.945 59.375 354.595C58.9233 354.243 58.5781 353.733 58.3395 353.065C58.1009 352.395 57.9815 351.585 57.9815 350.636C57.9815 349.693 58.1009 348.888 58.3395 348.22C58.581 347.55 58.9276 347.038 59.3793 346.686C59.8338 346.331 60.3793 346.153 61.0156 346.153C61.652 346.153 62.196 346.331 62.6477 346.686C63.1023 347.038 63.4489 347.55 63.6875 348.22C63.929 348.888 64.0497 349.693 64.0497 350.636C64.0497 351.585 63.9304 352.395 63.6918 353.065C63.4531 353.733 63.108 354.243 62.6562 354.595C62.2045 354.945 61.6577 355.119 61.0156 355.119ZM61.0156 354.182C61.652 354.182 62.1463 353.875 62.4986 353.261C62.8509 352.648 63.027 351.773 63.027 350.636C63.027 349.881 62.946 349.237 62.7841 348.706C62.625 348.175 62.3949 347.77 62.0938 347.491C61.7955 347.213 61.4361 347.074 61.0156 347.074C60.3849 347.074 59.892 347.385 59.5369 348.007C59.1818 348.626 59.0043 349.503 59.0043 350.636C59.0043 351.392 59.0838 352.034 59.2429 352.562C59.402 353.091 59.6307 353.493 59.929 353.768C60.2301 354.044 60.5923 354.182 61.0156 354.182Z" fill="#08183A"/>
<path d="M49.6989 308.21V307.341L53.5341 301.273H54.1648V302.619H53.7386L50.8409 307.205V307.273H56.0057V308.21H49.6989ZM53.8068 310V307.946V307.541V301.273H54.8125V310H53.8068ZM60.4492 310.119C59.8072 310.119 59.2603 309.945 58.8086 309.595C58.3569 309.243 58.0117 308.733 57.7731 308.065C57.5344 307.395 57.4151 306.585 57.4151 305.636C57.4151 304.693 57.5344 303.888 57.7731 303.22C58.0146 302.55 58.3612 302.038 58.8129 301.686C59.2674 301.331 59.8129 301.153 60.4492 301.153C61.0856 301.153 61.6296 301.331 62.0813 301.686C62.5359 302.038 62.8825 302.55 63.1211 303.22C63.3626 303.888 63.4833 304.693 63.4833 305.636C63.4833 306.585 63.364 307.395 63.1254 308.065C62.8867 308.733 62.5415 309.243 62.0898 309.595C61.6381 309.945 61.0913 310.119 60.4492 310.119ZM60.4492 309.182C61.0856 309.182 61.5799 308.875 61.9322 308.261C62.2844 307.648 62.4606 306.773 62.4606 305.636C62.4606 304.881 62.3796 304.237 62.2177 303.706C62.0586 303.175 61.8285 302.77 61.5273 302.491C61.229 302.213 60.8697 302.074 60.4492 302.074C59.8185 302.074 59.3256 302.385 58.9705 303.007C58.6154 303.626 58.4379 304.503 58.4379 305.636C58.4379 306.392 58.5174 307.034 58.6765 307.562C58.8356 308.091 59.0643 308.493 59.3626 308.768C59.6637 309.044 60.0259 309.182 60.4492 309.182Z" fill="#08183A"/>
<path d="M53.6307 265.119C53.1307 265.119 52.6804 265.02 52.2798 264.821C51.8793 264.622 51.5582 264.349 51.3168 264.003C51.0753 263.656 50.9432 263.261 50.9205 262.818H51.9432C51.983 263.213 52.1619 263.54 52.4801 263.798C52.8011 264.054 53.1847 264.182 53.6307 264.182C53.9886 264.182 54.3068 264.098 54.5852 263.93C54.8665 263.763 55.0866 263.533 55.2457 263.24C55.4077 262.945 55.4886 262.611 55.4886 262.239C55.4886 261.858 55.4048 261.518 55.2372 261.22C55.0724 260.919 54.8452 260.682 54.5554 260.509C54.2656 260.335 53.9347 260.247 53.5625 260.244C53.2955 260.241 53.0213 260.283 52.7401 260.368C52.4588 260.45 52.2273 260.557 52.0455 260.688L51.0568 260.568L51.5852 256.273H56.1193V257.21H52.4716L52.1648 259.784H52.2159C52.3949 259.642 52.6193 259.524 52.8892 259.43C53.1591 259.337 53.4403 259.29 53.733 259.29C54.267 259.29 54.7429 259.418 55.1605 259.673C55.581 259.926 55.9105 260.273 56.1491 260.713C56.3906 261.153 56.5114 261.656 56.5114 262.222C56.5114 262.778 56.3864 263.276 56.1364 263.713C55.8892 264.148 55.5483 264.491 55.1136 264.744C54.679 264.994 54.1847 265.119 53.6307 265.119ZM61.0508 265.119C60.4087 265.119 59.8619 264.945 59.4102 264.595C58.9585 264.243 58.6133 263.733 58.3746 263.065C58.136 262.395 58.0167 261.585 58.0167 260.636C58.0167 259.693 58.136 258.888 58.3746 258.22C58.6161 257.55 58.9627 257.038 59.4144 256.686C59.869 256.331 60.4144 256.153 61.0508 256.153C61.6871 256.153 62.2312 256.331 62.6829 256.686C63.1374 257.038 63.484 257.55 63.7227 258.22C63.9641 258.888 64.0849 259.693 64.0849 260.636C64.0849 261.585 63.9656 262.395 63.7269 263.065C63.4883 263.733 63.1431 264.243 62.6914 264.595C62.2397 264.945 61.6928 265.119 61.0508 265.119ZM61.0508 264.182C61.6871 264.182 62.1815 263.875 62.5337 263.261C62.886 262.648 63.0621 261.773 63.0621 260.636C63.0621 259.881 62.9812 259.237 62.8192 258.706C62.6602 258.175 62.43 257.77 62.1289 257.491C61.8306 257.213 61.4712 257.074 61.0508 257.074C60.4201 257.074 59.9272 257.385 59.5721 258.007C59.217 258.626 59.0394 259.503 59.0394 260.636C59.0394 261.392 59.119 262.034 59.2781 262.562C59.4371 263.091 59.6658 263.493 59.9641 263.768C60.2653 264.044 60.6275 264.182 61.0508 264.182Z" fill="#08183A"/>
<path d="M53.8011 220.119C53.4432 220.114 53.0852 220.045 52.7273 219.915C52.3693 219.784 52.0426 219.564 51.7472 219.254C51.4517 218.942 51.2145 218.52 51.0355 217.989C50.8565 217.455 50.767 216.784 50.767 215.977C50.767 215.205 50.8395 214.52 50.9844 213.923C51.1293 213.324 51.3395 212.82 51.6151 212.411C51.8906 211.999 52.223 211.686 52.6122 211.473C53.0043 211.26 53.446 211.153 53.9375 211.153C54.4261 211.153 54.8608 211.251 55.2415 211.447C55.625 211.641 55.9375 211.911 56.179 212.257C56.4205 212.604 56.5767 213.003 56.6477 213.455H55.608C55.5114 213.062 55.3239 212.737 55.0455 212.479C54.767 212.22 54.3977 212.091 53.9375 212.091C53.2614 212.091 52.7287 212.385 52.3395 212.973C51.9531 213.561 51.7585 214.386 51.7557 215.449H51.8239C51.983 215.207 52.1719 215.001 52.3906 214.831C52.6122 214.658 52.8565 214.524 53.1236 214.43C53.3906 214.337 53.6733 214.29 53.9716 214.29C54.4716 214.29 54.929 214.415 55.3438 214.665C55.7585 214.912 56.0909 215.254 56.3409 215.692C56.5909 216.126 56.7159 216.625 56.7159 217.188C56.7159 217.727 56.5952 218.222 56.3537 218.67C56.1122 219.116 55.7727 219.472 55.3352 219.736C54.9006 219.997 54.3892 220.125 53.8011 220.119ZM53.8011 219.182C54.1591 219.182 54.4801 219.092 54.7642 218.913C55.0511 218.734 55.277 218.494 55.4418 218.193C55.6094 217.892 55.6932 217.557 55.6932 217.188C55.6932 216.827 55.6122 216.499 55.4503 216.203C55.2912 215.905 55.071 215.668 54.7898 215.491C54.5114 215.315 54.1932 215.227 53.8352 215.227C53.5653 215.227 53.3139 215.281 53.081 215.389C52.848 215.494 52.6435 215.639 52.4673 215.824C52.294 216.009 52.1577 216.22 52.0582 216.459C51.9588 216.695 51.9091 216.943 51.9091 217.205C51.9091 217.551 51.9901 217.875 52.152 218.176C52.3168 218.477 52.5412 218.72 52.8253 218.905C53.1122 219.089 53.4375 219.182 53.8011 219.182ZM61.2383 220.119C60.5962 220.119 60.0494 219.945 59.5977 219.595C59.146 219.243 58.8008 218.733 58.5621 218.065C58.3235 217.395 58.2042 216.585 58.2042 215.636C58.2042 214.693 58.3235 213.888 58.5621 213.22C58.8036 212.55 59.1502 212.038 59.6019 211.686C60.0565 211.331 60.6019 211.153 61.2383 211.153C61.8746 211.153 62.4187 211.331 62.8704 211.686C63.3249 212.038 63.6715 212.55 63.9102 213.22C64.1516 213.888 64.2724 214.693 64.2724 215.636C64.2724 216.585 64.1531 217.395 63.9144 218.065C63.6758 218.733 63.3306 219.243 62.8789 219.595C62.4272 219.945 61.8803 220.119 61.2383 220.119ZM61.2383 219.182C61.8746 219.182 62.369 218.875 62.7212 218.261C63.0735 217.648 63.2496 216.773 63.2496 215.636C63.2496 214.881 63.1687 214.237 63.0067 213.706C62.8477 213.175 62.6175 212.77 62.3164 212.491C62.0181 212.213 61.6587 212.074 61.2383 212.074C60.6076 212.074 60.1147 212.385 59.7596 213.007C59.4045 213.626 59.2269 214.503 59.2269 215.636C59.2269 216.392 59.3065 217.034 59.4656 217.562C59.6246 218.091 59.8533 218.493 60.1516 218.768C60.4528 219.044 60.815 219.182 61.2383 219.182Z" fill="#08183A"/>
<path d="M51.1761 175L55.0795 167.278V167.21H50.5795V166.273H56.1705V167.261L52.2841 175H51.1761ZM60.418 175.119C59.7759 175.119 59.229 174.945 58.7773 174.595C58.3256 174.243 57.9805 173.733 57.7418 173.065C57.5032 172.395 57.3839 171.585 57.3839 170.636C57.3839 169.693 57.5032 168.888 57.7418 168.22C57.9833 167.55 58.3299 167.038 58.7816 166.686C59.2362 166.331 59.7816 166.153 60.418 166.153C61.0543 166.153 61.5984 166.331 62.0501 166.686C62.5046 167.038 62.8512 167.55 63.0898 168.22C63.3313 168.888 63.4521 169.693 63.4521 170.636C63.4521 171.585 63.3327 172.395 63.0941 173.065C62.8555 173.733 62.5103 174.243 62.0586 174.595C61.6069 174.945 61.06 175.119 60.418 175.119ZM60.418 174.182C61.0543 174.182 61.5487 173.875 61.9009 173.261C62.2532 172.648 62.4293 171.773 62.4293 170.636C62.4293 169.881 62.3484 169.237 62.1864 168.706C62.0273 168.175 61.7972 167.77 61.4961 167.491C61.1978 167.213 60.8384 167.074 60.418 167.074C59.7873 167.074 59.2944 167.385 58.9393 168.007C58.5842 168.626 58.4066 169.503 58.4066 170.636C58.4066 171.392 58.4862 172.034 58.6452 172.562C58.8043 173.091 59.033 173.493 59.3313 173.768C59.6325 174.044 59.9947 174.182 60.418 174.182Z" fill="#08183A"/>
<path d="M53.6989 130.119C53.1136 130.119 52.5966 130.016 52.1477 129.808C51.7017 129.598 51.3537 129.31 51.1037 128.943C50.8537 128.574 50.7301 128.153 50.733 127.682C50.7301 127.312 50.8026 126.972 50.9503 126.659C51.098 126.344 51.2997 126.081 51.5554 125.871C51.8139 125.658 52.1023 125.523 52.4205 125.466V125.415C52.0028 125.307 51.6705 125.072 51.4233 124.712C51.1761 124.348 51.054 123.935 51.0568 123.472C51.054 123.028 51.1662 122.632 51.3935 122.283C51.6207 121.933 51.9332 121.658 52.331 121.456C52.7315 121.254 53.1875 121.153 53.6989 121.153C54.2045 121.153 54.6563 121.254 55.054 121.456C55.4517 121.658 55.7642 121.933 55.9915 122.283C56.2216 122.632 56.3381 123.028 56.3409 123.472C56.3381 123.935 56.2116 124.348 55.9616 124.712C55.7145 125.072 55.3864 125.307 54.9773 125.415V125.466C55.2926 125.523 55.5767 125.658 55.8295 125.871C56.0824 126.081 56.2841 126.344 56.4347 126.659C56.5852 126.972 56.6619 127.312 56.6648 127.682C56.6619 128.153 56.5341 128.574 56.2812 128.943C56.0312 129.31 55.6832 129.598 55.2372 129.808C54.794 130.016 54.2813 130.119 53.6989 130.119ZM53.6989 129.182C54.0938 129.182 54.4347 129.118 54.7216 128.99C55.0085 128.862 55.2301 128.682 55.3864 128.449C55.5426 128.216 55.6222 127.943 55.625 127.631C55.6222 127.301 55.5369 127.01 55.3693 126.757C55.2017 126.504 54.973 126.305 54.6832 126.161C54.3963 126.016 54.0682 125.943 53.6989 125.943C53.3267 125.943 52.9943 126.016 52.7017 126.161C52.4119 126.305 52.1832 126.504 52.0156 126.757C51.8509 127.01 51.7699 127.301 51.7727 127.631C51.7699 127.943 51.8452 128.216 51.9986 128.449C52.1548 128.682 52.3778 128.862 52.6676 128.99C52.9574 129.118 53.3011 129.182 53.6989 129.182ZM53.6989 125.04C54.0114 125.04 54.2884 124.977 54.5298 124.852C54.7741 124.727 54.9659 124.553 55.1051 124.328C55.2443 124.104 55.3153 123.841 55.3182 123.54C55.3153 123.244 55.2457 122.987 55.1094 122.768C54.973 122.547 54.7841 122.376 54.5426 122.257C54.3011 122.135 54.0199 122.074 53.6989 122.074C53.3722 122.074 53.0866 122.135 52.8423 122.257C52.598 122.376 52.4091 122.547 52.2756 122.768C52.142 122.987 52.0767 123.244 52.0795 123.54C52.0767 123.841 52.1435 124.104 52.2798 124.328C52.419 124.553 52.6108 124.727 52.8551 124.852C53.0994 124.977 53.3807 125.04 53.6989 125.04ZM61.1445 130.119C60.5025 130.119 59.9556 129.945 59.5039 129.595C59.0522 129.243 58.707 128.733 58.4684 128.065C58.2298 127.395 58.1104 126.585 58.1104 125.636C58.1104 124.693 58.2298 123.888 58.4684 123.22C58.7099 122.55 59.0565 122.038 59.5082 121.686C59.9627 121.331 60.5082 121.153 61.1445 121.153C61.7809 121.153 62.3249 121.331 62.7766 121.686C63.2312 122.038 63.5778 122.55 63.8164 123.22C64.0579 123.888 64.1786 124.693 64.1786 125.636C64.1786 126.585 64.0593 127.395 63.8207 128.065C63.582 128.733 63.2369 129.243 62.7852 129.595C62.3335 129.945 61.7866 130.119 61.1445 130.119ZM61.1445 129.182C61.7809 129.182 62.2752 128.875 62.6275 128.261C62.9798 127.648 63.1559 126.773 63.1559 125.636C63.1559 124.881 63.0749 124.237 62.913 123.706C62.7539 123.175 62.5238 122.77 62.2227 122.491C61.9244 122.213 61.565 122.074 61.1445 122.074C60.5138 122.074 60.021 122.385 59.6658 123.007C59.3107 123.626 59.1332 124.503 59.1332 125.636C59.1332 126.392 59.2127 127.034 59.3718 127.562C59.5309 128.091 59.7596 128.493 60.0579 128.768C60.359 129.044 60.7212 129.182 61.1445 129.182Z" fill="#08183A"/>
<path d="M136.057 383V374.273H141.29V375.21H137.114V378.159H140.898V379.097H137.114V383H136.057ZM144.89 383.153C144.475 383.153 144.098 383.075 143.76 382.919C143.422 382.76 143.154 382.531 142.955 382.233C142.756 381.932 142.657 381.568 142.657 381.142C142.657 380.767 142.73 380.463 142.878 380.23C143.026 379.994 143.223 379.81 143.471 379.676C143.718 379.543 143.99 379.443 144.289 379.378C144.59 379.31 144.892 379.256 145.196 379.216C145.594 379.165 145.917 379.126 146.164 379.101C146.414 379.072 146.596 379.026 146.709 378.96C146.826 378.895 146.884 378.781 146.884 378.619V378.585C146.884 378.165 146.769 377.838 146.539 377.605C146.311 377.372 145.966 377.256 145.503 377.256C145.023 377.256 144.647 377.361 144.374 377.571C144.101 377.781 143.909 378.006 143.799 378.244L142.844 377.903C143.015 377.506 143.242 377.196 143.526 376.974C143.813 376.75 144.125 376.594 144.463 376.506C144.804 376.415 145.14 376.369 145.469 376.369C145.679 376.369 145.921 376.395 146.194 376.446C146.469 376.494 146.735 376.595 146.99 376.749C147.249 376.902 147.463 377.134 147.634 377.443C147.804 377.753 147.89 378.168 147.89 378.688V383H146.884V382.114H146.833C146.765 382.256 146.651 382.408 146.492 382.57C146.333 382.732 146.121 382.869 145.857 382.983C145.593 383.097 145.27 383.153 144.89 383.153ZM145.043 382.25C145.441 382.25 145.776 382.172 146.049 382.016C146.324 381.859 146.532 381.658 146.671 381.411C146.813 381.163 146.884 380.903 146.884 380.631V379.71C146.841 379.761 146.748 379.808 146.603 379.851C146.461 379.891 146.296 379.926 146.108 379.957C145.924 379.986 145.743 380.011 145.567 380.034C145.394 380.054 145.253 380.071 145.145 380.085C144.884 380.119 144.64 380.175 144.412 380.251C144.188 380.325 144.006 380.437 143.867 380.588C143.73 380.736 143.662 380.937 143.662 381.193C143.662 381.543 143.792 381.807 144.05 381.986C144.311 382.162 144.642 382.25 145.043 382.25ZM149.862 383V374.273H150.867V377.494H150.952C151.026 377.381 151.129 377.236 151.259 377.06C151.393 376.881 151.583 376.722 151.83 376.582C152.08 376.44 152.418 376.369 152.844 376.369C153.396 376.369 153.881 376.507 154.302 376.783C154.722 377.058 155.05 377.449 155.286 377.955C155.522 378.46 155.64 379.057 155.64 379.744C155.64 380.438 155.522 381.038 155.286 381.547C155.05 382.053 154.724 382.445 154.306 382.723C153.888 382.999 153.407 383.136 152.862 383.136C152.441 383.136 152.104 383.067 151.852 382.928C151.599 382.786 151.404 382.625 151.268 382.446C151.131 382.264 151.026 382.114 150.952 381.994H150.833V383H149.862ZM150.85 379.727C150.85 380.222 150.923 380.658 151.067 381.036C151.212 381.411 151.424 381.705 151.702 381.918C151.981 382.128 152.322 382.233 152.725 382.233C153.146 382.233 153.496 382.122 153.778 381.901C154.062 381.676 154.275 381.375 154.417 380.997C154.562 380.616 154.634 380.193 154.634 379.727C154.634 379.267 154.563 378.852 154.421 378.483C154.282 378.111 154.07 377.817 153.786 377.601C153.505 377.382 153.151 377.273 152.725 377.273C152.316 377.273 151.972 377.376 151.694 377.584C151.415 377.788 151.205 378.075 151.063 378.445C150.921 378.811 150.85 379.239 150.85 379.727Z" fill="#08183A"/>
<path d="M211.057 374.273H212.318L215.284 381.517H215.386L218.352 374.273H219.614V383H218.625V376.369H218.54L215.812 383H214.858L212.131 376.369H212.045V383H211.057V374.273ZM223.522 383.153C223.108 383.153 222.731 383.075 222.393 382.919C222.055 382.76 221.787 382.531 221.588 382.233C221.389 381.932 221.289 381.568 221.289 381.142C221.289 380.767 221.363 380.463 221.511 380.23C221.659 379.994 221.856 379.81 222.103 379.676C222.35 379.543 222.623 379.443 222.922 379.378C223.223 379.31 223.525 379.256 223.829 379.216C224.227 379.165 224.549 379.126 224.797 379.101C225.047 379.072 225.228 379.026 225.342 378.96C225.458 378.895 225.517 378.781 225.517 378.619V378.585C225.517 378.165 225.402 377.838 225.172 377.605C224.944 377.372 224.599 377.256 224.136 377.256C223.656 377.256 223.279 377.361 223.007 377.571C222.734 377.781 222.542 378.006 222.431 378.244L221.477 377.903C221.647 377.506 221.875 377.196 222.159 376.974C222.446 376.75 222.758 376.594 223.096 376.506C223.437 376.415 223.772 376.369 224.102 376.369C224.312 376.369 224.554 376.395 224.826 376.446C225.102 376.494 225.368 376.595 225.623 376.749C225.882 376.902 226.096 377.134 226.267 377.443C226.437 377.753 226.522 378.168 226.522 378.688V383H225.517V382.114H225.466C225.397 382.256 225.284 382.408 225.125 382.57C224.966 382.732 224.754 382.869 224.49 382.983C224.225 383.097 223.903 383.153 223.522 383.153ZM223.676 382.25C224.074 382.25 224.409 382.172 224.681 382.016C224.957 381.859 225.164 381.658 225.304 381.411C225.446 381.163 225.517 380.903 225.517 380.631V379.71C225.474 379.761 225.38 379.808 225.235 379.851C225.093 379.891 224.929 379.926 224.741 379.957C224.556 379.986 224.376 380.011 224.2 380.034C224.027 380.054 223.886 380.071 223.778 380.085C223.517 380.119 223.272 380.175 223.045 380.251C222.821 380.325 222.639 380.437 222.5 380.588C222.363 380.736 222.295 380.937 222.295 381.193C222.295 381.543 222.424 381.807 222.683 381.986C222.944 382.162 223.275 382.25 223.676 382.25ZM228.358 383V376.455H229.33V377.443H229.398C229.517 377.119 229.733 376.857 230.045 376.655C230.358 376.453 230.71 376.352 231.102 376.352C231.176 376.352 231.268 376.354 231.379 376.357C231.49 376.359 231.574 376.364 231.631 376.369V377.392C231.597 377.384 231.518 377.371 231.396 377.354C231.277 377.334 231.151 377.324 231.017 377.324C230.699 377.324 230.415 377.391 230.165 377.524C229.918 377.655 229.722 377.837 229.577 378.07C229.435 378.3 229.364 378.562 229.364 378.858V383H228.358Z" fill="#08183A"/>
<path d="M289.415 383H288.307L291.511 374.273H292.602L295.807 383H294.699L292.091 375.653H292.023L289.415 383ZM289.824 379.591H294.29V380.528H289.824V379.591ZM297.03 385.455V376.455H298.001V377.494H298.121C298.195 377.381 298.297 377.236 298.428 377.06C298.561 376.881 298.751 376.722 298.999 376.582C299.249 376.44 299.587 376.369 300.013 376.369C300.564 376.369 301.05 376.507 301.47 376.783C301.891 377.058 302.219 377.449 302.455 377.955C302.69 378.46 302.808 379.057 302.808 379.744C302.808 380.438 302.69 381.038 302.455 381.547C302.219 382.053 301.892 382.445 301.474 382.723C301.057 382.999 300.575 383.136 300.03 383.136C299.609 383.136 299.273 383.067 299.02 382.928C298.767 382.786 298.572 382.625 298.436 382.446C298.3 382.264 298.195 382.114 298.121 381.994H298.036V385.455H297.03ZM298.018 379.727C298.018 380.222 298.091 380.658 298.236 381.036C298.381 381.411 298.592 381.705 298.871 381.918C299.149 382.128 299.49 382.233 299.893 382.233C300.314 382.233 300.665 382.122 300.946 381.901C301.23 381.676 301.443 381.375 301.585 380.997C301.73 380.616 301.803 380.193 301.803 379.727C301.803 379.267 301.732 378.852 301.589 378.483C301.45 378.111 301.239 377.817 300.955 377.601C300.673 377.382 300.32 377.273 299.893 377.273C299.484 377.273 299.141 377.376 298.862 377.584C298.584 377.788 298.374 378.075 298.232 378.445C298.089 378.811 298.018 379.239 298.018 379.727ZM304.342 383V376.455H305.314V377.443H305.382C305.501 377.119 305.717 376.857 306.03 376.655C306.342 376.453 306.695 376.352 307.087 376.352C307.161 376.352 307.253 376.354 307.364 376.357C307.474 376.359 307.558 376.364 307.615 376.369V377.392C307.581 377.384 307.503 377.371 307.381 377.354C307.261 377.334 307.135 377.324 307.001 377.324C306.683 377.324 306.399 377.391 306.149 377.524C305.902 377.655 305.706 377.837 305.561 378.07C305.419 378.3 305.348 378.562 305.348 378.858V383H304.342Z" fill="#08183A"/>
<path d="M359.057 374.273H360.318L363.284 381.517H363.386L366.352 374.273H367.614V383H366.625V376.369H366.54L363.812 383H362.858L360.131 376.369H360.045V383H359.057V374.273ZM371.522 383.153C371.108 383.153 370.731 383.075 370.393 382.919C370.055 382.76 369.787 382.531 369.588 382.233C369.389 381.932 369.289 381.568 369.289 381.142C369.289 380.767 369.363 380.463 369.511 380.23C369.659 379.994 369.856 379.81 370.103 379.676C370.35 379.543 370.623 379.443 370.922 379.378C371.223 379.31 371.525 379.256 371.829 379.216C372.227 379.165 372.549 379.126 372.797 379.101C373.047 379.072 373.228 379.026 373.342 378.96C373.458 378.895 373.517 378.781 373.517 378.619V378.585C373.517 378.165 373.402 377.838 373.172 377.605C372.944 377.372 372.599 377.256 372.136 377.256C371.656 377.256 371.279 377.361 371.007 377.571C370.734 377.781 370.542 378.006 370.431 378.244L369.477 377.903C369.647 377.506 369.875 377.196 370.159 376.974C370.446 376.75 370.758 376.594 371.096 376.506C371.437 376.415 371.772 376.369 372.102 376.369C372.312 376.369 372.554 376.395 372.826 376.446C373.102 376.494 373.368 376.595 373.623 376.749C373.882 376.902 374.096 377.134 374.267 377.443C374.437 377.753 374.522 378.168 374.522 378.688V383H373.517V382.114H373.466C373.397 382.256 373.284 382.408 373.125 382.57C372.966 382.732 372.754 382.869 372.49 382.983C372.225 383.097 371.903 383.153 371.522 383.153ZM371.676 382.25C372.074 382.25 372.409 382.172 372.681 382.016C372.957 381.859 373.164 381.658 373.304 381.411C373.446 381.163 373.517 380.903 373.517 380.631V379.71C373.474 379.761 373.38 379.808 373.235 379.851C373.093 379.891 372.929 379.926 372.741 379.957C372.556 379.986 372.376 380.011 372.2 380.034C372.027 380.054 371.886 380.071 371.778 380.085C371.517 380.119 371.272 380.175 371.045 380.251C370.821 380.325 370.639 380.437 370.5 380.588C370.363 380.736 370.295 380.937 370.295 381.193C370.295 381.543 370.424 381.807 370.683 381.986C370.944 382.162 371.275 382.25 371.676 382.25ZM376.771 385.455C376.601 385.455 376.449 385.44 376.315 385.412C376.182 385.386 376.089 385.361 376.038 385.335L376.294 384.449C376.538 384.511 376.754 384.534 376.942 384.517C377.129 384.5 377.295 384.416 377.44 384.266C377.588 384.118 377.723 383.878 377.845 383.545L378.033 383.034L375.612 376.455H376.703L378.51 381.67H378.578L380.385 376.455H381.476L378.697 383.955C378.572 384.293 378.418 384.572 378.233 384.794C378.048 385.018 377.834 385.185 377.589 385.293C377.348 385.401 377.075 385.455 376.771 385.455Z" fill="#08183A"/>
<path d="M439.398 374.273H440.455V380.511C440.455 381.068 440.352 381.541 440.148 381.93C439.943 382.32 439.655 382.615 439.283 382.817C438.911 383.018 438.472 383.119 437.966 383.119C437.489 383.119 437.064 383.033 436.692 382.859C436.32 382.683 436.027 382.433 435.814 382.109C435.601 381.786 435.494 381.401 435.494 380.955H436.534C436.534 381.202 436.595 381.418 436.717 381.602C436.842 381.784 437.013 381.926 437.229 382.028C437.445 382.131 437.69 382.182 437.966 382.182C438.27 382.182 438.528 382.118 438.741 381.99C438.955 381.862 439.116 381.675 439.227 381.428C439.341 381.178 439.398 380.872 439.398 380.511V374.273ZM446.561 380.324V376.455H447.567V383H446.561V381.892H446.493C446.339 382.224 446.101 382.507 445.777 382.74C445.453 382.97 445.044 383.085 444.55 383.085C444.141 383.085 443.777 382.996 443.459 382.817C443.141 382.635 442.891 382.362 442.709 381.999C442.527 381.632 442.436 381.17 442.436 380.614V376.455H443.442V380.545C443.442 381.023 443.575 381.403 443.842 381.688C444.112 381.972 444.456 382.114 444.874 382.114C445.124 382.114 445.378 382.05 445.636 381.922C445.898 381.794 446.116 381.598 446.293 381.334C446.472 381.07 446.561 380.733 446.561 380.324ZM450.414 379.062V383H449.409V376.455H450.38V377.477H450.466C450.619 377.145 450.852 376.878 451.164 376.676C451.477 376.472 451.88 376.369 452.375 376.369C452.818 376.369 453.206 376.46 453.538 376.642C453.87 376.821 454.129 377.094 454.314 377.46C454.498 377.824 454.591 378.284 454.591 378.841V383H453.585V378.909C453.585 378.395 453.451 377.994 453.184 377.707C452.917 377.418 452.551 377.273 452.085 377.273C451.764 377.273 451.477 377.342 451.224 377.482C450.974 377.621 450.777 377.824 450.632 378.091C450.487 378.358 450.414 378.682 450.414 379.062Z" fill="#08183A"/>
<path d="M516.398 374.273H517.455V380.511C517.455 381.068 517.352 381.541 517.148 381.93C516.943 382.32 516.655 382.615 516.283 382.817C515.911 383.018 515.472 383.119 514.966 383.119C514.489 383.119 514.064 383.033 513.692 382.859C513.32 382.683 513.027 382.433 512.814 382.109C512.601 381.786 512.494 381.401 512.494 380.955H513.534C513.534 381.202 513.595 381.418 513.717 381.602C513.842 381.784 514.013 381.926 514.229 382.028C514.445 382.131 514.69 382.182 514.966 382.182C515.27 382.182 515.528 382.118 515.741 381.99C515.955 381.862 516.116 381.675 516.227 381.428C516.341 381.178 516.398 380.872 516.398 380.511V374.273ZM523.561 380.324V376.455H524.567V383H523.561V381.892H523.493C523.339 382.224 523.101 382.507 522.777 382.74C522.453 382.97 522.044 383.085 521.55 383.085C521.141 383.085 520.777 382.996 520.459 382.817C520.141 382.635 519.891 382.362 519.709 381.999C519.527 381.632 519.436 381.17 519.436 380.614V376.455H520.442V380.545C520.442 381.023 520.575 381.403 520.842 381.688C521.112 381.972 521.456 382.114 521.874 382.114C522.124 382.114 522.378 382.05 522.636 381.922C522.898 381.794 523.116 381.598 523.293 381.334C523.472 381.07 523.561 380.733 523.561 380.324ZM527.414 374.273V383H526.409V374.273H527.414Z" fill="#08183A"/>
<path d="M464.83 61.4545C464.778 61.0227 464.571 60.6875 464.207 60.4489C463.844 60.2102 463.398 60.0909 462.869 60.0909C462.483 60.0909 462.145 60.1534 461.855 60.2784C461.568 60.4034 461.344 60.5753 461.182 60.794C461.023 61.0128 460.943 61.2614 460.943 61.5398C460.943 61.7727 460.999 61.973 461.109 62.1406C461.223 62.3054 461.368 62.4432 461.544 62.554C461.72 62.6619 461.905 62.7514 462.098 62.8224C462.291 62.8906 462.469 62.946 462.631 62.9886L463.517 63.2273C463.744 63.2869 463.997 63.3693 464.276 63.4744C464.557 63.5795 464.825 63.723 465.081 63.9048C465.339 64.0838 465.553 64.3139 465.72 64.5952C465.888 64.8764 465.972 65.2216 465.972 65.6307C465.972 66.1023 465.848 66.5284 465.601 66.9091C465.357 67.2898 464.999 67.5923 464.527 67.8168C464.058 68.0412 463.489 68.1534 462.818 68.1534C462.193 68.1534 461.652 68.0526 461.195 67.8509C460.74 67.6491 460.382 67.3679 460.121 67.0071C459.862 66.6463 459.716 66.2273 459.682 65.75H460.773C460.801 66.0795 460.912 66.3523 461.105 66.5682C461.301 66.7812 461.548 66.9403 461.847 67.0455C462.148 67.1477 462.472 67.1989 462.818 67.1989C463.222 67.1989 463.584 67.1335 463.905 67.0028C464.226 66.8693 464.48 66.6847 464.668 66.4489C464.855 66.2102 464.949 65.9318 464.949 65.6136C464.949 65.3239 464.868 65.0881 464.706 64.9062C464.544 64.7244 464.331 64.5767 464.067 64.4631C463.803 64.3494 463.517 64.25 463.21 64.1648L462.136 63.858C461.455 63.6619 460.915 63.3821 460.517 63.0185C460.119 62.6548 459.92 62.179 459.92 61.5909C459.92 61.1023 460.053 60.6761 460.317 60.3125C460.584 59.946 460.942 59.6619 461.391 59.4602C461.842 59.2557 462.347 59.1534 462.903 59.1534C463.466 59.1534 463.966 59.2543 464.403 59.456C464.841 59.6548 465.188 59.9276 465.443 60.2741C465.702 60.6207 465.838 61.0142 465.852 61.4545H464.83ZM470.419 61.4545V62.3068H467.027V61.4545H470.419ZM468.016 59.8864H469.022V66.125C469.022 66.4091 469.063 66.6222 469.145 66.7642C469.23 66.9034 469.338 66.9972 469.469 67.0455C469.603 67.0909 469.743 67.1136 469.891 67.1136C470.002 67.1136 470.093 67.108 470.164 67.0966C470.235 67.0824 470.292 67.071 470.334 67.0625L470.539 67.9659C470.471 67.9915 470.375 68.017 470.253 68.0426C470.131 68.071 469.976 68.0852 469.789 68.0852C469.505 68.0852 469.226 68.0241 468.953 67.902C468.684 67.7798 468.459 67.5938 468.28 67.3438C468.104 67.0938 468.016 66.7784 468.016 66.3977V59.8864ZM476.057 65.3239V61.4545H477.063V68H476.057V66.892H475.989C475.836 67.2244 475.597 67.5071 475.273 67.7401C474.949 67.9702 474.54 68.0852 474.046 68.0852C473.637 68.0852 473.273 67.9957 472.955 67.8168C472.637 67.6349 472.387 67.3622 472.205 66.9986C472.023 66.6321 471.932 66.1705 471.932 65.6136V61.4545H472.938V65.5455C472.938 66.0227 473.071 66.4034 473.338 66.6875C473.608 66.9716 473.952 67.1136 474.37 67.1136C474.62 67.1136 474.874 67.0497 475.132 66.9219C475.394 66.794 475.613 66.598 475.789 66.3338C475.968 66.0696 476.057 65.733 476.057 65.3239ZM481.376 68.1364C480.831 68.1364 480.349 67.9986 479.932 67.723C479.514 67.4446 479.188 67.0526 478.952 66.5469C478.716 66.0384 478.598 65.4375 478.598 64.7443C478.598 64.0568 478.716 63.4602 478.952 62.9545C479.188 62.4489 479.516 62.0582 479.936 61.7827C480.357 61.5071 480.842 61.3693 481.393 61.3693C481.82 61.3693 482.156 61.4403 482.403 61.5824C482.653 61.7216 482.844 61.8807 482.974 62.0597C483.108 62.2358 483.212 62.3807 483.286 62.4943H483.371V59.2727H484.376V68H483.405V66.9943H483.286C483.212 67.1136 483.107 67.2642 482.97 67.446C482.834 67.625 482.639 67.7855 482.386 67.9276C482.134 68.0668 481.797 68.1364 481.376 68.1364ZM481.513 67.233C481.916 67.233 482.257 67.1278 482.536 66.9176C482.814 66.7045 483.026 66.4105 483.17 66.0355C483.315 65.6577 483.388 65.2216 483.388 64.7273C483.388 64.2386 483.317 63.8111 483.175 63.4446C483.033 63.0753 482.822 62.7884 482.544 62.5838C482.266 62.3764 481.922 62.2727 481.513 62.2727C481.087 62.2727 480.732 62.3821 480.447 62.6009C480.166 62.8168 479.955 63.1108 479.812 63.483C479.673 63.8523 479.604 64.267 479.604 64.7273C479.604 65.1932 479.675 65.6165 479.817 65.9972C479.962 66.375 480.175 66.6761 480.456 66.9006C480.74 67.1222 481.092 67.233 481.513 67.233ZM489.102 68.1364C488.472 68.1364 487.928 67.9972 487.47 67.7188C487.016 67.4375 486.665 67.0455 486.418 66.5426C486.173 66.0369 486.051 65.4489 486.051 64.7784C486.051 64.108 486.173 63.517 486.418 63.0057C486.665 62.4915 487.009 62.0909 487.449 61.804C487.892 61.5142 488.409 61.3693 489 61.3693C489.341 61.3693 489.678 61.4261 490.01 61.5398C490.342 61.6534 490.645 61.8381 490.918 62.0938C491.19 62.3466 491.408 62.6818 491.57 63.0994C491.732 63.517 491.812 64.0312 491.812 64.642V65.0682H486.767V64.1989H490.79C490.79 63.8295 490.716 63.5 490.568 63.2102C490.423 62.9205 490.216 62.6918 489.946 62.5241C489.679 62.3565 489.364 62.2727 489 62.2727C488.599 62.2727 488.253 62.3722 487.96 62.571C487.67 62.767 487.447 63.0227 487.291 63.3381C487.135 63.6534 487.057 63.9915 487.057 64.3523V64.9318C487.057 65.4261 487.142 65.8452 487.312 66.1889C487.486 66.5298 487.726 66.7898 488.033 66.9688C488.339 67.1449 488.696 67.233 489.102 67.233C489.366 67.233 489.605 67.196 489.818 67.1222C490.034 67.0455 490.22 66.9318 490.376 66.7812C490.533 66.6278 490.653 66.4375 490.739 66.2102L491.71 66.483C491.608 66.8125 491.436 67.1023 491.195 67.3523C490.953 67.5994 490.655 67.7926 490.3 67.9318C489.945 68.0682 489.545 68.1364 489.102 68.1364ZM494.348 64.0625V68H493.342V61.4545H494.314V62.4773H494.399C494.553 62.1449 494.786 61.8778 495.098 61.6761C495.411 61.4716 495.814 61.3693 496.308 61.3693C496.751 61.3693 497.139 61.4602 497.472 61.642C497.804 61.821 498.063 62.0938 498.247 62.4602C498.432 62.8239 498.524 63.2841 498.524 63.8409V68H497.518V63.9091C497.518 63.3949 497.385 62.9943 497.118 62.7074C496.851 62.4176 496.484 62.2727 496.018 62.2727C495.697 62.2727 495.411 62.3423 495.158 62.4815C494.908 62.6207 494.71 62.8239 494.565 63.0909C494.42 63.358 494.348 63.6818 494.348 64.0625ZM503.208 61.4545V62.3068H499.816V61.4545H503.208ZM500.805 59.8864H501.811V66.125C501.811 66.4091 501.852 66.6222 501.934 66.7642C502.02 66.9034 502.127 66.9972 502.258 67.0455C502.392 67.0909 502.532 67.1136 502.68 67.1136C502.791 67.1136 502.882 67.108 502.953 67.0966C503.024 67.0824 503.081 67.071 503.123 67.0625L503.328 67.9659C503.26 67.9915 503.164 68.017 503.042 68.0426C502.92 68.071 502.765 68.0852 502.578 68.0852C502.294 68.0852 502.015 68.0241 501.743 67.902C501.473 67.7798 501.248 67.5938 501.069 67.3438C500.893 67.0938 500.805 66.7784 500.805 66.3977V59.8864Z" fill="#08183A"/>
<circle cx="388" cy="64" r="3" fill="#08183A"/>
<circle cx="452" cy="64" r="3" fill="#F2BA1D"/>
<path d="M71 306H522" stroke="#08183A" stroke-opacity="0.87" stroke-width="0.5"/>
<path d="M72 261H522" stroke="#08183A" stroke-opacity="0.87" stroke-width="0.5"/>
<path d="M72 216H523" stroke="#08183A" stroke-opacity="0.87" stroke-width="0.5"/>
<path d="M73 171H523" stroke="#08183A" stroke-opacity="0.87" stroke-width="0.5"/>
<path d="M73 126H524" stroke="#08183A" stroke-opacity="0.87" stroke-width="0.5"/>
<path d="M70.25 350.996V365.005" stroke="#08183A" stroke-opacity="0.62" stroke-width="0.5"/>
<path d="M146 351V365.009" stroke="#08183A" stroke-opacity="0.62" stroke-width="0.5"/>
<path d="M221.75 351.004V365.013" stroke="#08183A" stroke-opacity="0.62" stroke-width="0.5"/>
<path d="M297.5 351.009V365.018" stroke="#08183A" stroke-opacity="0.62" stroke-width="0.5"/>
<path d="M369.5 351.013V365.022" stroke="#08183A" stroke-opacity="0.62" stroke-width="0.5"/>
<path d="M445.25 351.018V365.027" stroke="#08183A" stroke-opacity="0.62" stroke-width="0.5"/>
<path d="M520.75 351.022V365.031" stroke="#08183A" stroke-opacity="0.62" stroke-width="0.5"/>
<path d="M70 351H521" stroke="#08183A" stroke-opacity="0.87" stroke-width="0.5"/>
<g clip-path="url(#clip0_58_26)">
<path d="M75.7146 305.402C77.762 301.711 80.3677 298.121 83.082 294.61C89.1775 286.731 96.4053 279.142 105.169 272.37C115.002 264.78 127.147 257.938 141.773 254.517C149.388 252.742 157.485 251.974 165.566 252.313C175.554 252.732 185.295 254.876 194.632 257.08C216.331 262.207 236.835 269.178 258.147 274.893C277.845 280.169 299.109 284.767 320.746 283.839C344.523 282.822 364.594 274.494 379.887 263.104C398.22 249.431 414.103 234.421 429.83 219.5C442.641 207.343 455.112 194.756 470.498 183.855C480.859 176.515 494.167 168.925 510.468 168.725C514.144 168.676 517.758 169.015 521.31 169.643C523 169.942 523.714 168.257 522.039 167.957C514.935 166.711 507.521 166.651 500.448 167.977C493.112 169.354 486.551 172.017 480.673 175.118C464.682 183.556 452.63 195.035 440.982 205.877C425.549 220.248 410.721 234.889 394.265 248.792C385.424 256.262 376.444 263.942 365.261 270.046C356.265 274.963 345.811 278.772 334.333 280.687C313.084 284.248 291.028 280.997 270.896 276.259C248.965 271.093 228.274 264.042 206.73 258.277C188.94 253.52 169.769 248.772 150.226 251.206C134.809 253.121 121.33 258.955 110.427 266.036C100.143 272.719 91.7522 280.588 84.7261 288.806C80.4918 293.753 76.6607 298.879 73.5277 304.165C73.3726 304.424 73.2175 304.684 73.0779 304.943C72.504 306 75.1252 306.459 75.7146 305.402Z" fill="#08183A"/>
<g clip-path="url(#clip1_58_26)">
<path d="M522.722 199.256C519.571 201.799 516.207 204.262 512.811 206.695C504.385 212.748 495.535 218.571 486.276 224.155C474.128 231.494 461.261 238.405 447.561 244.657C432.979 251.328 417.353 257.251 400.534 261.578C384.516 265.697 367.207 268.349 349.735 267.96C341.065 267.771 332.443 266.833 324.23 265.108C314.547 263.084 306.007 259.883 297.369 256.593C278.118 249.264 259.225 241.546 239.565 234.625C223.563 229.001 206.728 223.717 188.571 221.283C172.128 219.09 155.211 219.877 139.797 224.095C119.19 229.729 102.583 239.88 88.4265 250.38C83.6422 253.92 79.1191 257.58 74.7267 261.309C73.6653 262.217 71.1833 261.339 72.261 260.432C86.8426 248.027 103.416 235.762 124.497 227.276C138.964 221.453 155.636 217.973 173.075 218.332C190.302 218.681 206.794 222.38 222.143 226.947C241.247 232.631 259.176 239.741 277.089 246.701C287.343 250.689 297.565 254.708 307.983 258.547C315.853 261.449 324.377 263.622 333.341 264.899C350.405 267.322 368.171 266.295 384.81 263.224C402.134 260.033 418.316 254.778 433.355 248.675C448.198 242.652 462.045 235.722 475.075 228.313C485.656 222.291 495.731 215.949 505.299 209.328C510.296 205.877 515.195 202.358 519.816 198.718C519.718 198.788 520.012 198.568 520.257 198.369C521.351 197.481 523.833 198.349 522.722 199.256Z" fill="#F2BA1D"/>
</g>
</g>
<defs>
<filter id="filter0_d_58_26" x="0.5" y="0.5" width="575" height="447" filterUnits="userSpaceOnUse" color-interpolation-filters="sRGB">
<feFlood flood-opacity="0" result="BackgroundImageFix"/>
<feColorMatrix in="SourceAlpha" type="matrix" values="0 0 0 0 0 0 0 0 0 0 0 0 0 0 0 0 0 0 127 0" result="hardAlpha"/>
<feMorphology radius="5" operator="erode" in="SourceAlpha" result="effect1_dropShadow_58_26"/>
<feOffset dx="4" dy="4"/>
<feGaussianBlur stdDeviation="18.25"/>
<feComposite in2="hardAlpha" operator="out"/>
<feColorMatrix type="matrix" values="0 0 0 0 0 0 0 0 0 0 0 0 0 0 0 0 0 0 0.17 0"/>
<feBlend mode="normal" in2="BackgroundImageFix" result="effect1_dropShadow_58_26"/>
<feBlend mode="normal" in="SourceGraphic" in2="effect1_dropShadow_58_26" result="shape"/>
</filter>
<clipPath id="clip0_58_26">
<rect width="450" height="139" fill="white" transform="translate(73 167)"/>
</clipPath>
<clipPath id="clip1_58_26">
<rect width="451" height="70" fill="white" transform="matrix(-1 0 0 1 523 198)"/>
</clipPath>
</defs>
</svg>
