<svg width="576" height="448" viewBox="0 0 576 448" fill="none" xmlns="http://www.w3.org/2000/svg">
<g filter="url(#filter0_d_58_27)">
<rect x="28" y="28" width="512" height="384" rx="10" fill="white"/>
</g>
<path d="M48.6989 307.21V306.341L52.5341 300.273H53.1648V301.619H52.7386L49.8409 306.205V306.273H55.0057V307.21H48.6989ZM52.8068 309V306.946V306.541V300.273H53.8125V309H52.8068ZM59.4492 309.119C58.8072 309.119 58.2603 308.945 57.8086 308.595C57.3569 308.243 57.0117 307.733 56.7731 307.065C56.5344 306.395 56.4151 305.585 56.4151 304.636C56.4151 303.693 56.5344 302.888 56.7731 302.22C57.0146 301.55 57.3612 301.038 57.8129 300.686C58.2674 300.331 58.8129 300.153 59.4492 300.153C60.0856 300.153 60.6296 300.331 61.0813 300.686C61.5359 301.038 61.8825 301.55 62.1211 302.22C62.3626 302.888 62.4833 303.693 62.4833 304.636C62.4833 305.585 62.364 306.395 62.1254 307.065C61.8867 307.733 61.5415 308.243 61.0898 308.595C60.6381 308.945 60.0913 309.119 59.4492 309.119ZM59.4492 308.182C60.0856 308.182 60.5799 307.875 60.9322 307.261C61.2844 306.648 61.4606 305.773 61.4606 304.636C61.4606 303.881 61.3796 303.237 61.2177 302.706C61.0586 302.175 60.8285 301.77 60.5273 301.491C60.229 301.213 59.8697 301.074 59.4492 301.074C58.8185 301.074 58.3256 301.385 57.9705 302.007C57.6154 302.626 57.4379 303.503 57.4379 304.636C57.4379 305.392 57.5174 306.034 57.6765 306.562C57.8356 307.091 58.0643 307.493 58.3626 307.768C58.6637 308.044 59.0259 308.182 59.4492 308.182Z" fill="#08183A"/>
<path d="M48.9034 354V353.233L51.7841 350.08C52.1222 349.71 52.4006 349.389 52.6193 349.116C52.8381 348.841 53 348.582 53.1051 348.341C53.2131 348.097 53.267 347.841 53.267 347.574C53.267 347.267 53.1932 347.001 53.0455 346.777C52.9006 346.553 52.7017 346.379 52.4489 346.257C52.196 346.135 51.9119 346.074 51.5966 346.074C51.2614 346.074 50.9688 346.143 50.7188 346.283C50.4716 346.419 50.2798 346.611 50.1435 346.858C50.0099 347.105 49.9432 347.395 49.9432 347.727H48.9375C48.9375 347.216 49.0554 346.767 49.2912 346.381C49.527 345.994 49.848 345.693 50.2543 345.477C50.6634 345.261 51.1222 345.153 51.6307 345.153C52.142 345.153 52.5952 345.261 52.9901 345.477C53.3849 345.693 53.6946 345.984 53.919 346.351C54.1435 346.717 54.2557 347.125 54.2557 347.574C54.2557 347.895 54.1974 348.209 54.081 348.516C53.9673 348.82 53.7685 349.159 53.4844 349.534C53.2031 349.906 52.8125 350.361 52.3125 350.898L50.3523 352.994V353.062H54.4091V354H48.9034ZM59.0156 354.119C58.3736 354.119 57.8267 353.945 57.375 353.595C56.9233 353.243 56.5781 352.733 56.3395 352.065C56.1009 351.395 55.9815 350.585 55.9815 349.636C55.9815 348.693 56.1009 347.888 56.3395 347.22C56.581 346.55 56.9276 346.038 57.3793 345.686C57.8338 345.331 58.3793 345.153 59.0156 345.153C59.652 345.153 60.196 345.331 60.6477 345.686C61.1023 346.038 61.4489 346.55 61.6875 347.22C61.929 347.888 62.0497 348.693 62.0497 349.636C62.0497 350.585 61.9304 351.395 61.6918 352.065C61.4531 352.733 61.108 353.243 60.6562 353.595C60.2045 353.945 59.6577 354.119 59.0156 354.119ZM59.0156 353.182C59.652 353.182 60.1463 352.875 60.4986 352.261C60.8509 351.648 61.027 350.773 61.027 349.636C61.027 348.881 60.946 348.237 60.7841 347.706C60.625 347.175 60.3949 346.77 60.0938 346.491C59.7955 346.213 59.4361 346.074 59.0156 346.074C58.3849 346.074 57.892 346.385 57.5369 347.007C57.1818 347.626 57.0043 348.503 57.0043 349.636C57.0043 350.392 57.0838 351.034 57.2429 351.562C57.402 352.091 57.6307 352.493 57.929 352.768C58.2301 353.044 58.5923 353.182 59.0156 353.182Z" fill="#08183A"/>
<path d="M52.6307 264.119C52.1307 264.119 51.6804 264.02 51.2798 263.821C50.8793 263.622 50.5582 263.349 50.3168 263.003C50.0753 262.656 49.9432 262.261 49.9205 261.818H50.9432C50.983 262.213 51.1619 262.54 51.4801 262.798C51.8011 263.054 52.1847 263.182 52.6307 263.182C52.9886 263.182 53.3068 263.098 53.5852 262.93C53.8665 262.763 54.0866 262.533 54.2457 262.24C54.4077 261.945 54.4886 261.611 54.4886 261.239C54.4886 260.858 54.4048 260.518 54.2372 260.22C54.0724 259.919 53.8452 259.682 53.5554 259.509C53.2656 259.335 52.9347 259.247 52.5625 259.244C52.2955 259.241 52.0213 259.283 51.7401 259.368C51.4588 259.45 51.2273 259.557 51.0455 259.688L50.0568 259.568L50.5852 255.273H55.1193V256.21H51.4716L51.1648 258.784H51.2159C51.3949 258.642 51.6193 258.524 51.8892 258.43C52.1591 258.337 52.4403 258.29 52.733 258.29C53.267 258.29 53.7429 258.418 54.1605 258.673C54.581 258.926 54.9105 259.273 55.1491 259.713C55.3906 260.153 55.5114 260.656 55.5114 261.222C55.5114 261.778 55.3864 262.276 55.1364 262.713C54.8892 263.148 54.5483 263.491 54.1136 263.744C53.679 263.994 53.1847 264.119 52.6307 264.119ZM60.0508 264.119C59.4087 264.119 58.8619 263.945 58.4102 263.595C57.9585 263.243 57.6133 262.733 57.3746 262.065C57.136 261.395 57.0167 260.585 57.0167 259.636C57.0167 258.693 57.136 257.888 57.3746 257.22C57.6161 256.55 57.9627 256.038 58.4144 255.686C58.869 255.331 59.4144 255.153 60.0508 255.153C60.6871 255.153 61.2312 255.331 61.6829 255.686C62.1374 256.038 62.484 256.55 62.7227 257.22C62.9641 257.888 63.0849 258.693 63.0849 259.636C63.0849 260.585 62.9656 261.395 62.7269 262.065C62.4883 262.733 62.1431 263.243 61.6914 263.595C61.2397 263.945 60.6928 264.119 60.0508 264.119ZM60.0508 263.182C60.6871 263.182 61.1815 262.875 61.5337 262.261C61.886 261.648 62.0621 260.773 62.0621 259.636C62.0621 258.881 61.9812 258.237 61.8192 257.706C61.6602 257.175 61.43 256.77 61.1289 256.491C60.8306 256.213 60.4712 256.074 60.0508 256.074C59.4201 256.074 58.9272 256.385 58.5721 257.007C58.217 257.626 58.0394 258.503 58.0394 259.636C58.0394 260.392 58.119 261.034 58.2781 261.562C58.4371 262.091 58.6658 262.493 58.9641 262.768C59.2653 263.044 59.6275 263.182 60.0508 263.182Z" fill="#08183A"/>
<path d="M52.8011 219.119C52.4432 219.114 52.0852 219.045 51.7273 218.915C51.3693 218.784 51.0426 218.564 50.7472 218.254C50.4517 217.942 50.2145 217.52 50.0355 216.989C49.8565 216.455 49.767 215.784 49.767 214.977C49.767 214.205 49.8395 213.52 49.9844 212.923C50.1293 212.324 50.3395 211.82 50.6151 211.411C50.8906 210.999 51.223 210.686 51.6122 210.473C52.0043 210.26 52.446 210.153 52.9375 210.153C53.4261 210.153 53.8608 210.251 54.2415 210.447C54.625 210.641 54.9375 210.911 55.179 211.257C55.4205 211.604 55.5767 212.003 55.6477 212.455H54.608C54.5114 212.062 54.3239 211.737 54.0455 211.479C53.767 211.22 53.3977 211.091 52.9375 211.091C52.2614 211.091 51.7287 211.385 51.3395 211.973C50.9531 212.561 50.7585 213.386 50.7557 214.449H50.8239C50.983 214.207 51.1719 214.001 51.3906 213.831C51.6122 213.658 51.8565 213.524 52.1236 213.43C52.3906 213.337 52.6733 213.29 52.9716 213.29C53.4716 213.29 53.929 213.415 54.3438 213.665C54.7585 213.912 55.0909 214.254 55.3409 214.692C55.5909 215.126 55.7159 215.625 55.7159 216.188C55.7159 216.727 55.5952 217.222 55.3537 217.67C55.1122 218.116 54.7727 218.472 54.3352 218.736C53.9006 218.997 53.3892 219.125 52.8011 219.119ZM52.8011 218.182C53.1591 218.182 53.4801 218.092 53.7642 217.913C54.0511 217.734 54.277 217.494 54.4418 217.193C54.6094 216.892 54.6932 216.557 54.6932 216.188C54.6932 215.827 54.6122 215.499 54.4503 215.203C54.2912 214.905 54.071 214.668 53.7898 214.491C53.5114 214.315 53.1932 214.227 52.8352 214.227C52.5653 214.227 52.3139 214.281 52.081 214.389C51.848 214.494 51.6435 214.639 51.4673 214.824C51.294 215.009 51.1577 215.22 51.0582 215.459C50.9588 215.695 50.9091 215.943 50.9091 216.205C50.9091 216.551 50.9901 216.875 51.152 217.176C51.3168 217.477 51.5412 217.72 51.8253 217.905C52.1122 218.089 52.4375 218.182 52.8011 218.182ZM60.2383 219.119C59.5962 219.119 59.0494 218.945 58.5977 218.595C58.146 218.243 57.8008 217.733 57.5621 217.065C57.3235 216.395 57.2042 215.585 57.2042 214.636C57.2042 213.693 57.3235 212.888 57.5621 212.22C57.8036 211.55 58.1502 211.038 58.6019 210.686C59.0565 210.331 59.6019 210.153 60.2383 210.153C60.8746 210.153 61.4187 210.331 61.8704 210.686C62.3249 211.038 62.6715 211.55 62.9102 212.22C63.1516 212.888 63.2724 213.693 63.2724 214.636C63.2724 215.585 63.1531 216.395 62.9144 217.065C62.6758 217.733 62.3306 218.243 61.8789 218.595C61.4272 218.945 60.8803 219.119 60.2383 219.119ZM60.2383 218.182C60.8746 218.182 61.369 217.875 61.7212 217.261C62.0735 216.648 62.2496 215.773 62.2496 214.636C62.2496 213.881 62.1687 213.237 62.0067 212.706C61.8477 212.175 61.6175 211.77 61.3164 211.491C61.0181 211.213 60.6587 211.074 60.2383 211.074C59.6076 211.074 59.1147 211.385 58.7596 212.007C58.4045 212.626 58.2269 213.503 58.2269 214.636C58.2269 215.392 58.3065 216.034 58.4656 216.562C58.6246 217.091 58.8533 217.493 59.1516 217.768C59.4528 218.044 59.815 218.182 60.2383 218.182Z" fill="#08183A"/>
<path d="M50.1761 174L54.0795 166.278V166.21H49.5795V165.273H55.1705V166.261L51.2841 174H50.1761ZM59.418 174.119C58.7759 174.119 58.229 173.945 57.7773 173.595C57.3256 173.243 56.9805 172.733 56.7418 172.065C56.5032 171.395 56.3839 170.585 56.3839 169.636C56.3839 168.693 56.5032 167.888 56.7418 167.22C56.9833 166.55 57.3299 166.038 57.7816 165.686C58.2362 165.331 58.7816 165.153 59.418 165.153C60.0543 165.153 60.5984 165.331 61.0501 165.686C61.5046 166.038 61.8512 166.55 62.0898 167.22C62.3313 167.888 62.4521 168.693 62.4521 169.636C62.4521 170.585 62.3327 171.395 62.0941 172.065C61.8555 172.733 61.5103 173.243 61.0586 173.595C60.6069 173.945 60.06 174.119 59.418 174.119ZM59.418 173.182C60.0543 173.182 60.5487 172.875 60.9009 172.261C61.2532 171.648 61.4293 170.773 61.4293 169.636C61.4293 168.881 61.3484 168.237 61.1864 167.706C61.0273 167.175 60.7972 166.77 60.4961 166.491C60.1978 166.213 59.8384 166.074 59.418 166.074C58.7873 166.074 58.2944 166.385 57.9393 167.007C57.5842 167.626 57.4066 168.503 57.4066 169.636C57.4066 170.392 57.4862 171.034 57.6452 171.562C57.8043 172.091 58.033 172.493 58.3313 172.768C58.6325 173.044 58.9947 173.182 59.418 173.182Z" fill="#08183A"/>
<path d="M52.6989 129.119C52.1136 129.119 51.5966 129.016 51.1477 128.808C50.7017 128.598 50.3537 128.31 50.1037 127.943C49.8537 127.574 49.7301 127.153 49.733 126.682C49.7301 126.312 49.8026 125.972 49.9503 125.659C50.098 125.344 50.2997 125.081 50.5554 124.871C50.8139 124.658 51.1023 124.523 51.4205 124.466V124.415C51.0028 124.307 50.6705 124.072 50.4233 123.712C50.1761 123.348 50.054 122.935 50.0568 122.472C50.054 122.028 50.1662 121.632 50.3935 121.283C50.6207 120.933 50.9332 120.658 51.331 120.456C51.7315 120.254 52.1875 120.153 52.6989 120.153C53.2045 120.153 53.6563 120.254 54.054 120.456C54.4517 120.658 54.7642 120.933 54.9915 121.283C55.2216 121.632 55.3381 122.028 55.3409 122.472C55.3381 122.935 55.2116 123.348 54.9616 123.712C54.7145 124.072 54.3864 124.307 53.9773 124.415V124.466C54.2926 124.523 54.5767 124.658 54.8295 124.871C55.0824 125.081 55.2841 125.344 55.4347 125.659C55.5852 125.972 55.6619 126.312 55.6648 126.682C55.6619 127.153 55.5341 127.574 55.2812 127.943C55.0312 128.31 54.6832 128.598 54.2372 128.808C53.794 129.016 53.2813 129.119 52.6989 129.119ZM52.6989 128.182C53.0938 128.182 53.4347 128.118 53.7216 127.99C54.0085 127.862 54.2301 127.682 54.3864 127.449C54.5426 127.216 54.6222 126.943 54.625 126.631C54.6222 126.301 54.5369 126.01 54.3693 125.757C54.2017 125.504 53.973 125.305 53.6832 125.161C53.3963 125.016 53.0682 124.943 52.6989 124.943C52.3267 124.943 51.9943 125.016 51.7017 125.161C51.4119 125.305 51.1832 125.504 51.0156 125.757C50.8509 126.01 50.7699 126.301 50.7727 126.631C50.7699 126.943 50.8452 127.216 50.9986 127.449C51.1548 127.682 51.3778 127.862 51.6676 127.99C51.9574 128.118 52.3011 128.182 52.6989 128.182ZM52.6989 124.04C53.0114 124.04 53.2884 123.977 53.5298 123.852C53.7741 123.727 53.9659 123.553 54.1051 123.328C54.2443 123.104 54.3153 122.841 54.3182 122.54C54.3153 122.244 54.2457 121.987 54.1094 121.768C53.973 121.547 53.7841 121.376 53.5426 121.257C53.3011 121.135 53.0199 121.074 52.6989 121.074C52.3722 121.074 52.0866 121.135 51.8423 121.257C51.598 121.376 51.4091 121.547 51.2756 121.768C51.142 121.987 51.0767 122.244 51.0795 122.54C51.0767 122.841 51.1435 123.104 51.2798 123.328C51.419 123.553 51.6108 123.727 51.8551 123.852C52.0994 123.977 52.3807 124.04 52.6989 124.04ZM60.1445 129.119C59.5025 129.119 58.9556 128.945 58.5039 128.595C58.0522 128.243 57.707 127.733 57.4684 127.065C57.2298 126.395 57.1104 125.585 57.1104 124.636C57.1104 123.693 57.2298 122.888 57.4684 122.22C57.7099 121.55 58.0565 121.038 58.5082 120.686C58.9627 120.331 59.5082 120.153 60.1445 120.153C60.7809 120.153 61.3249 120.331 61.7766 120.686C62.2312 121.038 62.5778 121.55 62.8164 122.22C63.0579 122.888 63.1786 123.693 63.1786 124.636C63.1786 125.585 63.0593 126.395 62.8207 127.065C62.582 127.733 62.2369 128.243 61.7852 128.595C61.3335 128.945 60.7866 129.119 60.1445 129.119ZM60.1445 128.182C60.7809 128.182 61.2752 127.875 61.6275 127.261C61.9798 126.648 62.1559 125.773 62.1559 124.636C62.1559 123.881 62.0749 123.237 61.913 122.706C61.7539 122.175 61.5238 121.77 61.2227 121.491C60.9244 121.213 60.565 121.074 60.1445 121.074C59.5138 121.074 59.021 121.385 58.6658 122.007C58.3107 122.626 58.1332 123.503 58.1332 124.636C58.1332 125.392 58.2127 126.034 58.3718 126.562C58.5309 127.091 58.7596 127.493 59.0579 127.768C59.359 128.044 59.7212 128.182 60.1445 128.182Z" fill="#08183A"/>
<path d="M425.023 62C424.929 61.7131 424.805 61.456 424.652 61.2287C424.501 60.9986 424.321 60.8026 424.111 60.6406C423.903 60.4787 423.668 60.3551 423.403 60.2699C423.139 60.1847 422.849 60.142 422.534 60.142C422.017 60.142 421.547 60.2756 421.124 60.5426C420.7 60.8097 420.364 61.2031 420.114 61.723C419.864 62.2429 419.739 62.8807 419.739 63.6364C419.739 64.392 419.865 65.0298 420.118 65.5497C420.371 66.0696 420.713 66.4631 421.145 66.7301C421.577 66.9972 422.063 67.1307 422.602 67.1307C423.102 67.1307 423.543 67.0241 423.923 66.8111C424.307 66.5952 424.605 66.2912 424.818 65.8991C425.034 65.5043 425.142 65.0398 425.142 64.5057L425.466 64.5739H422.841V63.6364H426.165V64.5739C426.165 65.2926 426.011 65.9176 425.705 66.4489C425.401 66.9801 424.98 67.392 424.443 67.6847C423.909 67.9744 423.295 68.1193 422.602 68.1193C421.83 68.1193 421.151 67.9375 420.565 67.5739C419.983 67.2102 419.528 66.6932 419.202 66.0227C418.878 65.3523 418.716 64.5568 418.716 63.6364C418.716 62.946 418.808 62.3253 418.993 61.7741C419.18 61.2202 419.445 60.7486 419.786 60.3594C420.126 59.9702 420.53 59.6719 420.996 59.4645C421.462 59.2571 421.974 59.1534 422.534 59.1534C422.994 59.1534 423.423 59.223 423.821 59.3622C424.222 59.4986 424.578 59.6932 424.891 59.946C425.206 60.196 425.469 60.4957 425.679 60.8452C425.889 61.1918 426.034 61.5767 426.114 62H425.023ZM428.249 68V61.4545H429.254V68H428.249ZM428.76 60.3636C428.564 60.3636 428.395 60.2969 428.253 60.1634C428.114 60.0298 428.044 59.8693 428.044 59.6818C428.044 59.4943 428.114 59.3338 428.253 59.2003C428.395 59.0668 428.564 59 428.76 59C428.956 59 429.124 59.0668 429.263 59.2003C429.405 59.3338 429.476 59.4943 429.476 59.6818C429.476 59.8693 429.405 60.0298 429.263 60.1634C429.124 60.2969 428.956 60.3636 428.76 60.3636ZM431.096 68V61.4545H432.068V62.4432H432.136C432.255 62.1193 432.471 61.8565 432.784 61.6548C433.096 61.4531 433.449 61.3523 433.841 61.3523C433.914 61.3523 434.007 61.3537 434.118 61.3565C434.228 61.3594 434.312 61.3636 434.369 61.3693V62.392C434.335 62.3835 434.257 62.3707 434.135 62.3537C434.015 62.3338 433.889 62.3239 433.755 62.3239C433.437 62.3239 433.153 62.3906 432.903 62.5241C432.656 62.6548 432.46 62.8366 432.315 63.0696C432.173 63.2997 432.102 63.5625 432.102 63.858V68H431.096ZM436.567 59.2727V68H435.561V59.2727H436.567ZM443.045 62.9205L442.142 63.1761C442.085 63.0256 442.001 62.8793 441.89 62.7372C441.782 62.5923 441.635 62.473 441.447 62.3793C441.26 62.2855 441.02 62.2386 440.727 62.2386C440.326 62.2386 439.993 62.331 439.725 62.5156C439.461 62.6974 439.329 62.929 439.329 63.2102C439.329 63.4602 439.42 63.6577 439.602 63.8026C439.784 63.9474 440.068 64.0682 440.454 64.1648L441.426 64.4034C442.011 64.5455 442.447 64.7628 442.734 65.0554C443.021 65.3452 443.164 65.7187 443.164 66.1761C443.164 66.5511 443.056 66.8864 442.841 67.1818C442.627 67.4773 442.329 67.7102 441.946 67.8807C441.562 68.0511 441.116 68.1364 440.608 68.1364C439.94 68.1364 439.387 67.9915 438.95 67.7017C438.512 67.4119 438.235 66.9886 438.119 66.4318L439.074 66.1932C439.164 66.5455 439.336 66.8097 439.589 66.9858C439.845 67.1619 440.179 67.25 440.591 67.25C441.059 67.25 441.431 67.1506 441.707 66.9517C441.985 66.75 442.125 66.5085 442.125 66.2273C442.125 66 442.045 65.8097 441.886 65.6562C441.727 65.5 441.483 65.3835 441.153 65.3068L440.062 65.0511C439.463 64.9091 439.022 64.6889 438.741 64.3906C438.463 64.0895 438.324 63.7131 438.324 63.2614C438.324 62.892 438.427 62.5653 438.635 62.2812C438.845 61.9972 439.13 61.7741 439.491 61.6122C439.855 61.4503 440.267 61.3693 440.727 61.3693C441.375 61.3693 441.883 61.5114 442.252 61.7955C442.625 62.0795 442.889 62.4545 443.045 62.9205Z" fill="#08183A"/>
<path d="M462.057 68V59.2727H465.108C465.716 59.2727 466.217 59.3778 466.612 59.5881C467.007 59.7955 467.301 60.0753 467.494 60.4276C467.688 60.777 467.784 61.1648 467.784 61.5909C467.784 61.9659 467.717 62.2756 467.584 62.5199C467.453 62.7642 467.28 62.9574 467.064 63.0994C466.851 63.2415 466.619 63.3466 466.369 63.4148V63.5C466.636 63.517 466.905 63.6108 467.175 63.7812C467.445 63.9517 467.67 64.196 467.852 64.5142C468.034 64.8324 468.125 65.2216 468.125 65.6818C468.125 66.1193 468.026 66.5128 467.827 66.8622C467.628 67.2116 467.314 67.4886 466.885 67.6932C466.456 67.8977 465.898 68 465.21 68H462.057ZM463.114 67.0625H465.21C465.901 67.0625 466.391 66.929 466.68 66.6619C466.973 66.392 467.119 66.0653 467.119 65.6818C467.119 65.3864 467.044 65.1136 466.893 64.8636C466.743 64.6108 466.528 64.4091 466.25 64.2585C465.972 64.1051 465.642 64.0284 465.261 64.0284H463.114V67.0625ZM463.114 63.108H465.074C465.392 63.108 465.679 63.0455 465.935 62.9205C466.193 62.7955 466.398 62.6193 466.548 62.392C466.702 62.1648 466.778 61.8977 466.778 61.5909C466.778 61.2074 466.645 60.8821 466.378 60.6151C466.111 60.3452 465.688 60.2102 465.108 60.2102H463.114V63.108ZM472.384 68.1364C471.793 68.1364 471.275 67.9957 470.829 67.7145C470.386 67.4332 470.039 67.0398 469.789 66.5341C469.542 66.0284 469.418 65.4375 469.418 64.7614C469.418 64.0795 469.542 63.4844 469.789 62.9759C470.039 62.4673 470.386 62.0724 470.829 61.7912C471.275 61.5099 471.793 61.3693 472.384 61.3693C472.975 61.3693 473.492 61.5099 473.935 61.7912C474.381 62.0724 474.728 62.4673 474.975 62.9759C475.225 63.4844 475.35 64.0795 475.35 64.7614C475.35 65.4375 475.225 66.0284 474.975 66.5341C474.728 67.0398 474.381 67.4332 473.935 67.7145C473.492 67.9957 472.975 68.1364 472.384 68.1364ZM472.384 67.233C472.833 67.233 473.202 67.1179 473.492 66.8878C473.782 66.6577 473.996 66.3551 474.136 65.9801C474.275 65.6051 474.344 65.1989 474.344 64.7614C474.344 64.3239 474.275 63.9162 474.136 63.5384C473.996 63.1605 473.782 62.8551 473.492 62.6222C473.202 62.3892 472.833 62.2727 472.384 62.2727C471.935 62.2727 471.566 62.3892 471.276 62.6222C470.987 62.8551 470.772 63.1605 470.633 63.5384C470.494 63.9162 470.424 64.3239 470.424 64.7614C470.424 65.1989 470.494 65.6051 470.633 65.9801C470.772 66.3551 470.987 66.6577 471.276 66.8878C471.566 67.1179 471.935 67.233 472.384 67.233ZM477.299 70.4545C477.128 70.4545 476.976 70.4403 476.843 70.4119C476.709 70.3864 476.617 70.3608 476.566 70.3352L476.821 69.4489C477.066 69.5114 477.282 69.5341 477.469 69.517C477.657 69.5 477.823 69.4162 477.968 69.2656C478.115 69.1179 478.25 68.8778 478.373 68.5455L478.56 68.0341L476.14 61.4545H477.23L479.037 66.6705H479.105L480.912 61.4545H482.003L479.225 68.9545C479.1 69.2926 478.945 69.5724 478.76 69.794C478.576 70.0185 478.361 70.1847 478.117 70.2926C477.875 70.4006 477.603 70.4545 477.299 70.4545ZM487.967 62.9205L487.064 63.1761C487.007 63.0256 486.923 62.8793 486.812 62.7372C486.704 62.5923 486.556 62.473 486.369 62.3793C486.181 62.2855 485.941 62.2386 485.649 62.2386C485.248 62.2386 484.914 62.331 484.647 62.5156C484.383 62.6974 484.251 62.929 484.251 63.2102C484.251 63.4602 484.342 63.6577 484.524 63.8026C484.706 63.9474 484.99 64.0682 485.376 64.1648L486.348 64.4034C486.933 64.5455 487.369 64.7628 487.656 65.0554C487.943 65.3452 488.086 65.7187 488.086 66.1761C488.086 66.5511 487.978 66.8864 487.762 67.1818C487.549 67.4773 487.251 67.7102 486.868 67.8807C486.484 68.0511 486.038 68.1364 485.529 68.1364C484.862 68.1364 484.309 67.9915 483.872 67.7017C483.434 67.4119 483.157 66.9886 483.041 66.4318L483.995 66.1932C484.086 66.5455 484.258 66.8097 484.511 66.9858C484.767 67.1619 485.1 67.25 485.512 67.25C485.981 67.25 486.353 67.1506 486.629 66.9517C486.907 66.75 487.047 66.5085 487.047 66.2273C487.047 66 486.967 65.8097 486.808 65.6562C486.649 65.5 486.404 65.3835 486.075 65.3068L484.984 65.0511C484.385 64.9091 483.944 64.6889 483.663 64.3906C483.385 64.0895 483.245 63.7131 483.245 63.2614C483.245 62.892 483.349 62.5653 483.556 62.2812C483.767 61.9972 484.052 61.7741 484.413 61.6122C484.777 61.4503 485.189 61.3693 485.649 61.3693C486.297 61.3693 486.805 61.5114 487.174 61.7955C487.547 62.0795 487.811 62.4545 487.967 62.9205Z" fill="#08183A"/>
<path d="M74.7679 56.9091V70H72.9526L66.2985 60.3991H66.177V70H64.2019V56.9091H66.03L72.6905 66.5227H72.812V56.9091H74.7679ZM83.7152 65.9283V60.1818H85.6328V70H83.7536V68.2997H83.6513C83.4254 68.8239 83.0632 69.2607 82.5646 69.6101C82.0703 69.9553 81.4545 70.1278 80.7173 70.1278C80.0866 70.1278 79.5284 69.9893 79.0426 69.7124C78.5611 69.4311 78.1818 69.0156 77.9048 68.4659C77.6321 67.9162 77.4957 67.2365 77.4957 66.4268V60.1818H79.407V66.1967C79.407 66.8658 79.5923 67.3984 79.9631 67.7947C80.3338 68.1911 80.8153 68.3892 81.4077 68.3892C81.7656 68.3892 82.1214 68.2997 82.4751 68.1207C82.8331 67.9418 83.1293 67.6712 83.3636 67.3089C83.6023 66.9467 83.7195 66.4865 83.7152 65.9283ZM88.2008 70V60.1818H90.0353V61.7798H90.1568C90.3613 61.2386 90.6958 60.8168 91.1603 60.5142C91.6248 60.2074 92.1809 60.054 92.8287 60.054C93.4849 60.054 94.0346 60.2074 94.4778 60.5142C94.9252 60.821 95.2555 61.2429 95.4686 61.7798H95.5708C95.8052 61.2557 96.1781 60.8381 96.6895 60.527C97.2008 60.2116 97.8102 60.054 98.5176 60.054C99.4082 60.054 100.135 60.3331 100.697 60.8913C101.264 61.4496 101.547 62.2912 101.547 63.4162V70H99.6362V63.5952C99.6362 62.9304 99.4551 62.4489 99.0929 62.1506C98.7306 61.8523 98.2981 61.7031 97.7953 61.7031C97.1731 61.7031 96.6895 61.8949 96.3443 62.2784C95.9991 62.6577 95.8265 63.1456 95.8265 63.7422V70H93.9217V63.4737C93.9217 62.9411 93.7555 62.5128 93.4231 62.1889C93.0907 61.8651 92.6582 61.7031 92.1255 61.7031C91.7633 61.7031 91.4288 61.799 91.122 61.9908C90.8194 62.1783 90.5744 62.4403 90.3869 62.777C90.2037 63.1136 90.112 63.5036 90.112 63.9467V70H88.2008ZM104.262 70V56.9091H106.174V61.7734H106.289C106.4 61.5689 106.559 61.3324 106.768 61.0639C106.977 60.7955 107.267 60.5611 107.637 60.3608C108.008 60.1562 108.498 60.054 109.108 60.054C109.9 60.054 110.608 60.2543 111.23 60.6548C111.852 61.0554 112.34 61.6328 112.694 62.3871C113.051 63.1413 113.23 64.049 113.23 65.1101C113.23 66.1712 113.054 67.081 112.7 67.8395C112.346 68.5937 111.86 69.1754 111.243 69.5845C110.625 69.9893 109.919 70.1918 109.127 70.1918C108.53 70.1918 108.042 70.0916 107.663 69.8913C107.288 69.6911 106.994 69.4567 106.781 69.1882C106.568 68.9197 106.404 68.6811 106.289 68.4723H106.129V70H104.262ZM106.135 65.0909C106.135 65.7812 106.235 66.3864 106.436 66.9062C106.636 67.4261 106.926 67.8331 107.305 68.1271C107.684 68.4169 108.149 68.5618 108.699 68.5618C109.27 68.5618 109.747 68.4105 110.13 68.108C110.514 67.8011 110.804 67.3857 111 66.8615C111.2 66.3374 111.3 65.7472 111.3 65.0909C111.3 64.4432 111.202 63.8615 111.006 63.3459C110.814 62.8303 110.525 62.4233 110.137 62.125C109.753 61.8267 109.274 61.6776 108.699 61.6776C108.145 61.6776 107.676 61.8203 107.292 62.1058C106.913 62.3913 106.625 62.7898 106.429 63.3011C106.233 63.8125 106.135 64.4091 106.135 65.0909ZM119.608 70.1982C118.641 70.1982 117.808 69.9915 117.109 69.5781C116.414 69.1605 115.877 68.5746 115.498 67.8203C115.123 67.0618 114.936 66.1733 114.936 65.1548C114.936 64.1491 115.123 63.2628 115.498 62.4957C115.877 61.7287 116.406 61.13 117.083 60.6996C117.765 60.2692 118.562 60.054 119.474 60.054C120.028 60.054 120.565 60.1456 121.085 60.3288C121.605 60.5121 122.071 60.7997 122.485 61.1918C122.898 61.5838 123.224 62.093 123.463 62.7195C123.701 63.3416 123.82 64.098 123.82 64.9886V65.6662H116.016V64.2344H121.948C121.948 63.7315 121.845 63.2862 121.641 62.8984C121.436 62.5064 121.149 62.1974 120.778 61.9716C120.411 61.7457 119.981 61.6328 119.487 61.6328C118.95 61.6328 118.481 61.7649 118.08 62.0291C117.684 62.2891 117.377 62.63 117.16 63.0518C116.947 63.4695 116.84 63.9233 116.84 64.4134V65.532C116.84 66.1882 116.955 66.7464 117.186 67.2067C117.42 67.6669 117.746 68.0185 118.164 68.2614C118.581 68.5 119.069 68.6193 119.627 68.6193C119.99 68.6193 120.32 68.5682 120.618 68.4659C120.916 68.3594 121.174 68.2017 121.392 67.9929C121.609 67.7841 121.775 67.5263 121.89 67.2195L123.699 67.5455C123.554 68.0781 123.294 68.5447 122.919 68.9453C122.548 69.3416 122.082 69.6506 121.519 69.8722C120.961 70.0895 120.324 70.1982 119.608 70.1982ZM125.941 70V60.1818H127.788V61.7415H127.891C128.07 61.2131 128.385 60.7976 128.837 60.495C129.293 60.1882 129.808 60.0348 130.384 60.0348C130.503 60.0348 130.643 60.0391 130.805 60.0476C130.972 60.0561 131.102 60.0668 131.195 60.0795V61.9077C131.119 61.8864 130.982 61.8629 130.786 61.8374C130.59 61.8075 130.394 61.7926 130.198 61.7926C129.746 61.7926 129.344 61.8885 128.99 62.0803C128.641 62.2678 128.364 62.5298 128.159 62.8665C127.955 63.1989 127.852 63.5781 127.852 64.0043V70H125.941ZM141.749 70.1982C140.828 70.1982 140.025 69.9872 139.339 69.5653C138.653 69.1435 138.12 68.5533 137.741 67.7947C137.362 67.0362 137.172 66.1499 137.172 65.1357C137.172 64.1172 137.362 63.2266 137.741 62.4638C138.12 61.701 138.653 61.1087 139.339 60.6868C140.025 60.2649 140.828 60.054 141.749 60.054C142.669 60.054 143.472 60.2649 144.158 60.6868C144.844 61.1087 145.377 61.701 145.756 62.4638C146.136 63.2266 146.325 64.1172 146.325 65.1357C146.325 66.1499 146.136 67.0362 145.756 67.7947C145.377 68.5533 144.844 69.1435 144.158 69.5653C143.472 69.9872 142.669 70.1982 141.749 70.1982ZM141.755 68.5938C142.352 68.5938 142.846 68.4361 143.238 68.1207C143.63 67.8054 143.92 67.3857 144.107 66.8615C144.299 66.3374 144.395 65.7599 144.395 65.1293C144.395 64.5028 144.299 63.9276 144.107 63.4034C143.92 62.875 143.63 62.451 143.238 62.1314C142.846 61.8118 142.352 61.652 141.755 61.652C141.154 61.652 140.656 61.8118 140.259 62.1314C139.867 62.451 139.575 62.875 139.384 63.4034C139.196 63.9276 139.102 64.5028 139.102 65.1293C139.102 65.7599 139.196 66.3374 139.384 66.8615C139.575 67.3857 139.867 67.8054 140.259 68.1207C140.656 68.4361 141.154 68.5938 141.755 68.5938ZM153.131 60.1818V61.7159H147.583V60.1818H153.131ZM149.104 70V59.044C149.104 58.4304 149.238 57.9212 149.507 57.5163C149.775 57.1072 150.131 56.8026 150.574 56.6023C151.018 56.3977 151.499 56.2955 152.019 56.2955C152.403 56.2955 152.731 56.3274 153.003 56.3913C153.276 56.451 153.479 56.5064 153.611 56.5575L153.163 58.1044C153.074 58.0788 152.959 58.049 152.818 58.0149C152.677 57.9766 152.507 57.9574 152.307 57.9574C151.842 57.9574 151.51 58.0724 151.309 58.3026C151.113 58.5327 151.015 58.8651 151.015 59.2997V70H149.104ZM167.224 62.5788L165.492 62.8857C165.419 62.6641 165.304 62.4531 165.147 62.2528C164.993 62.0526 164.784 61.8885 164.52 61.7607C164.256 61.6328 163.926 61.5689 163.529 61.5689C162.988 61.5689 162.537 61.6903 162.174 61.9332C161.812 62.1719 161.631 62.4808 161.631 62.8601C161.631 63.1882 161.752 63.4524 161.995 63.6527C162.238 63.853 162.63 64.017 163.172 64.1449L164.731 64.5028C165.635 64.7116 166.308 65.0334 166.751 65.468C167.194 65.9027 167.416 66.4673 167.416 67.1619C167.416 67.75 167.245 68.2741 166.904 68.7344C166.568 69.1903 166.097 69.5483 165.492 69.8082C164.891 70.0682 164.194 70.1982 163.402 70.1982C162.302 70.1982 161.405 69.9638 160.711 69.495C160.016 69.022 159.59 68.3509 159.432 67.4815L161.279 67.2003C161.395 67.6818 161.631 68.0462 161.989 68.2933C162.347 68.5362 162.814 68.6577 163.389 68.6577C164.015 68.6577 164.516 68.5277 164.891 68.2678C165.266 68.0036 165.453 67.6818 165.453 67.3026C165.453 66.9957 165.338 66.7379 165.108 66.5291C164.882 66.3203 164.535 66.1626 164.066 66.0561L162.404 65.6918C161.488 65.483 160.811 65.1506 160.372 64.6946C159.937 64.2386 159.72 63.6612 159.72 62.9624C159.72 62.3828 159.882 61.8757 160.206 61.4411C160.529 61.0064 160.977 60.6676 161.548 60.4247C162.119 60.1776 162.773 60.054 163.51 60.054C164.571 60.054 165.407 60.2841 166.016 60.7443C166.625 61.2003 167.028 61.8118 167.224 62.5788ZM174.1 60.1818V61.7159H168.737V60.1818H174.1ZM170.176 57.8295H172.087V67.1172C172.087 67.4879 172.142 67.767 172.253 67.9545C172.364 68.1378 172.507 68.2635 172.681 68.3317C172.86 68.3956 173.054 68.4276 173.263 68.4276C173.416 68.4276 173.551 68.4169 173.666 68.3956C173.781 68.3743 173.87 68.3572 173.934 68.3445L174.279 69.9233C174.169 69.9659 174.011 70.0085 173.806 70.0511C173.602 70.098 173.346 70.1236 173.039 70.1278C172.536 70.1364 172.068 70.0469 171.633 69.8594C171.198 69.6719 170.847 69.3821 170.578 68.9901C170.31 68.598 170.176 68.1058 170.176 67.5135V57.8295ZM182.434 65.9283V60.1818H184.352V70H182.472V68.2997H182.37C182.144 68.8239 181.782 69.2607 181.283 69.6101C180.789 69.9553 180.173 70.1278 179.436 70.1278C178.805 70.1278 178.247 69.9893 177.761 69.7124C177.28 69.4311 176.901 69.0156 176.624 68.4659C176.351 67.9162 176.214 67.2365 176.214 66.4268V60.1818H178.126V66.1967C178.126 66.8658 178.311 67.3984 178.682 67.7947C179.053 68.1911 179.534 68.3892 180.126 68.3892C180.484 68.3892 180.84 68.2997 181.194 68.1207C181.552 67.9418 181.848 67.6712 182.082 67.3089C182.321 66.9467 182.438 66.4865 182.434 65.9283ZM190.595 70.1918C189.802 70.1918 189.095 69.9893 188.473 69.5845C187.855 69.1754 187.369 68.5937 187.015 67.8395C186.666 67.081 186.491 66.1712 186.491 65.1101C186.491 64.049 186.668 63.1413 187.022 62.3871C187.38 61.6328 187.87 61.0554 188.492 60.6548C189.114 60.2543 189.819 60.054 190.608 60.054C191.217 60.054 191.707 60.1562 192.078 60.3608C192.453 60.5611 192.743 60.7955 192.947 61.0639C193.156 61.3324 193.318 61.5689 193.433 61.7734H193.548V56.9091H195.459V70H193.593V68.4723H193.433C193.318 68.6811 193.152 68.9197 192.934 69.1882C192.721 69.4567 192.427 69.6911 192.052 69.8913C191.677 70.0916 191.192 70.1918 190.595 70.1918ZM191.017 68.5618C191.567 68.5618 192.031 68.4169 192.41 68.1271C192.794 67.8331 193.084 67.4261 193.28 66.9062C193.48 66.3864 193.58 65.7812 193.58 65.0909C193.58 64.4091 193.482 63.8125 193.286 63.3011C193.09 62.7898 192.802 62.3913 192.423 62.1058C192.044 61.8203 191.575 61.6776 191.017 61.6776C190.442 61.6776 189.962 61.8267 189.579 62.125C189.195 62.4233 188.905 62.8303 188.709 63.3459C188.518 63.8615 188.422 64.4432 188.422 65.0909C188.422 65.7472 188.52 66.3374 188.716 66.8615C188.912 67.3857 189.202 67.8011 189.585 68.108C189.973 68.4105 190.45 68.5618 191.017 68.5618ZM202.419 70.1982C201.451 70.1982 200.618 69.9915 199.919 69.5781C199.225 69.1605 198.688 68.5746 198.309 67.8203C197.934 67.0618 197.746 66.1733 197.746 65.1548C197.746 64.1491 197.934 63.2628 198.309 62.4957C198.688 61.7287 199.216 61.13 199.894 60.6996C200.576 60.2692 201.373 60.054 202.284 60.054C202.838 60.054 203.375 60.1456 203.895 60.3288C204.415 60.5121 204.882 60.7997 205.295 61.1918C205.708 61.5838 206.034 62.093 206.273 62.7195C206.512 63.3416 206.631 64.098 206.631 64.9886V65.6662H198.826V64.2344H204.758C204.758 63.7315 204.656 63.2862 204.451 62.8984C204.247 62.5064 203.959 62.1974 203.588 61.9716C203.222 61.7457 202.792 61.6328 202.297 61.6328C201.76 61.6328 201.292 61.7649 200.891 62.0291C200.495 62.2891 200.188 62.63 199.971 63.0518C199.757 63.4695 199.651 63.9233 199.651 64.4134V65.532C199.651 66.1882 199.766 66.7464 199.996 67.2067C200.23 67.6669 200.556 68.0185 200.974 68.2614C201.392 68.5 201.88 68.6193 202.438 68.6193C202.8 68.6193 203.13 68.5682 203.429 68.4659C203.727 68.3594 203.985 68.2017 204.202 67.9929C204.419 67.7841 204.586 67.5263 204.701 67.2195L206.51 67.5455C206.365 68.0781 206.105 68.5447 205.73 68.9453C205.359 69.3416 204.892 69.6506 204.33 69.8722C203.772 70.0895 203.135 70.1982 202.419 70.1982ZM210.663 64.1705V70H208.752V60.1818H210.586V61.7798H210.708C210.933 61.2599 211.287 60.8423 211.769 60.527C212.254 60.2116 212.866 60.054 213.603 60.054C214.272 60.054 214.858 60.1946 215.361 60.4759C215.864 60.7528 216.254 61.1662 216.531 61.7159C216.808 62.2656 216.946 62.9453 216.946 63.755V70H215.035V63.9851C215.035 63.2734 214.85 62.7173 214.479 62.3168C214.108 61.9119 213.599 61.7095 212.951 61.7095C212.508 61.7095 212.114 61.8054 211.769 61.9972C211.428 62.1889 211.157 62.4702 210.957 62.8409C210.761 63.2074 210.663 63.6506 210.663 64.1705ZM224.093 60.1818V61.7159H218.73V60.1818H224.093ZM220.168 57.8295H222.079V67.1172C222.079 67.4879 222.134 67.767 222.245 67.9545C222.356 68.1378 222.499 68.2635 222.673 68.3317C222.852 68.3956 223.046 68.4276 223.255 68.4276C223.409 68.4276 223.543 68.4169 223.658 68.3956C223.773 68.3743 223.862 68.3572 223.926 68.3445L224.271 69.9233C224.161 69.9659 224.003 70.0085 223.798 70.0511C223.594 70.098 223.338 70.1236 223.031 70.1278C222.529 70.1364 222.06 70.0469 221.625 69.8594C221.191 69.6719 220.839 69.3821 220.57 68.9901C220.302 68.598 220.168 68.1058 220.168 67.5135V57.8295Z" fill="#08183A"/>
<circle cx="413" cy="64" r="3" fill="#08183A"/>
<circle cx="454" cy="64" r="3" fill="#F2BA1D"/>
<path d="M70 351H522" stroke="#08183A" stroke-opacity="0.87" stroke-width="0.5"/>
<path d="M71 306H523" stroke="#08183A" stroke-opacity="0.87" stroke-width="0.5"/>
<path d="M71 261H523" stroke="#08183A" stroke-opacity="0.87" stroke-width="0.5"/>
<path d="M72 216H524" stroke="#08183A" stroke-opacity="0.87" stroke-width="0.5"/>
<path d="M72 171H524" stroke="#08183A" stroke-opacity="0.87" stroke-width="0.5"/>
<path d="M73 126H525" stroke="#08183A" stroke-opacity="0.87" stroke-width="0.5"/>
<path d="M113 217.5C113 212.806 116.806 209 121.5 209C126.194 209 130 212.806 130 217.5V351H113V217.5Z" fill="#08183A"/>
<path d="M135 179.5C135 174.806 138.806 171 143.5 171C148.194 171 152 174.806 152 179.5V351H135V179.5Z" fill="#F2BA1D"/>
<path d="M341 200.5C341 195.806 344.806 192 349.5 192C354.194 192 358 195.806 358 200.5V351H341V200.5Z" fill="#08183A"/>
<path d="M363 157.5C363 152.806 366.806 149 371.5 149C376.194 149 380 152.806 380 157.5V351H363V157.5Z" fill="#F2BA1D"/>
<path d="M189 181.5C189 176.806 192.806 173 197.5 173C202.194 173 206 176.806 206 181.5V351H189V181.5Z" fill="#08183A"/>
<path d="M211 134.5C211 129.806 214.806 126 219.5 126C224.194 126 228 129.806 228 134.5V351H211V134.5Z" fill="#F2BA1D"/>
<path d="M417 180.5C417 175.806 420.806 172 425.5 172C430.194 172 434 175.806 434 180.5V350H417V180.5Z" fill="#08183A"/>
<path d="M439 133.5C439 128.806 442.806 125 447.5 125C452.194 125 456 128.806 456 133.5V350H439V133.5Z" fill="#F2BA1D"/>
<path d="M265 252.5C265 247.806 268.806 244 273.5 244C278.194 244 282 247.806 282 252.5V351H265V252.5Z" fill="#08183A"/>
<path d="M287 224.5C287 219.806 290.806 216 295.5 216C300.194 216 304 219.806 304 224.5V351H287V224.5Z" fill="#F2BA1D"/>
<defs>
<filter id="filter0_d_58_27" x="0.5" y="0.5" width="575" height="447" filterUnits="userSpaceOnUse" color-interpolation-filters="sRGB">
<feFlood flood-opacity="0" result="BackgroundImageFix"/>
<feColorMatrix in="SourceAlpha" type="matrix" values="0 0 0 0 0 0 0 0 0 0 0 0 0 0 0 0 0 0 127 0" result="hardAlpha"/>
<feMorphology radius="5" operator="erode" in="SourceAlpha" result="effect1_dropShadow_58_27"/>
<feOffset dx="4" dy="4"/>
<feGaussianBlur stdDeviation="18.25"/>
<feComposite in2="hardAlpha" operator="out"/>
<feColorMatrix type="matrix" values="0 0 0 0 0 0 0 0 0 0 0 0 0 0 0 0 0 0 0.17 0"/>
<feBlend mode="normal" in2="BackgroundImageFix" result="effect1_dropShadow_58_27"/>
<feBlend mode="normal" in="SourceGraphic" in2="effect1_dropShadow_58_27" result="shape"/>
</filter>
</defs>
</svg>
