<svg width="222" height="36" viewBox="0 0 222 36" fill="none" xmlns="http://www.w3.org/2000/svg">
<path d="M0 36L14.0047 13.2L18.7078 21.7091L10.4513 36H0Z" fill="#F2BA1D"/>
<path d="M22.0523 0L17.6627 7.41818L30.3088 29.0182H22.4703L18.3943 35.7818H44L22.0523 0Z" fill="#08183A"/>
<path d="M63.6591 27H58.5455L64.3068 9.54545H70.7841L76.5455 27H71.4318L67.6136 14.3523H67.4773L63.6591 27ZM62.7045 20.1136H72.3182V23.6591H62.7045V20.1136ZM75.5462 13.3636V9.54545H90.7166V13.3636H85.4666V27H80.7962V13.3636H75.5462ZM92.0227 13.3636V9.54545H107.193V13.3636H101.943V27H97.2727V13.3636H92.0227ZM108.977 27V9.54545H121.556V13.3636H113.715V16.3636H120.908V20.1818H113.715V23.1818H121.522V27H108.977ZM139.009 9.54545V27H135.054L128.747 17.8295H128.645V27H123.906V9.54545H127.929L134.134 18.6818H134.27V9.54545H139.009ZM147.966 27H141.25V9.54545H147.898C149.693 9.54545 151.244 9.89489 152.551 10.5938C153.864 11.2869 154.875 12.2869 155.585 13.5938C156.301 14.8949 156.659 16.4545 156.659 18.2727C156.659 20.0909 156.304 21.6534 155.594 22.9602C154.884 24.2614 153.878 25.2614 152.577 25.9602C151.276 26.6534 149.739 27 147.966 27ZM145.989 22.9773H147.795C148.659 22.9773 149.395 22.8381 150.003 22.5597C150.616 22.2812 151.082 21.8011 151.401 21.1193C151.724 20.4375 151.886 19.4886 151.886 18.2727C151.886 17.0568 151.722 16.108 151.392 15.4261C151.068 14.7443 150.591 14.2642 149.96 13.9858C149.335 13.7074 148.568 13.5682 147.659 13.5682H145.989V22.9773ZM158.852 27V9.54545H171.431V13.3636H163.59V16.3636H170.783V20.1818H163.59V23.1818H171.397V27H158.852ZM178.315 27H173.202L178.963 9.54545H185.44L191.202 27H186.088L182.27 14.3523H182.134L178.315 27ZM177.361 20.1136H186.974V23.6591H177.361V20.1136ZM201.612 15C201.567 14.4318 201.354 13.9886 200.973 13.6705C200.598 13.3523 200.027 13.1932 199.26 13.1932C198.771 13.1932 198.371 13.2528 198.058 13.3722C197.751 13.4858 197.524 13.642 197.376 13.8409C197.229 14.0398 197.152 14.267 197.146 14.5227C197.135 14.733 197.172 14.9233 197.257 15.0938C197.348 15.2585 197.49 15.4091 197.683 15.5455C197.876 15.6761 198.124 15.7955 198.425 15.9034C198.726 16.0114 199.084 16.108 199.499 16.1932L200.93 16.5C201.896 16.7045 202.723 16.9744 203.411 17.3097C204.098 17.6449 204.661 18.0398 205.098 18.4943C205.536 18.9432 205.857 19.4489 206.061 20.0114C206.271 20.5739 206.379 21.1875 206.385 21.8523C206.379 23 206.092 23.9716 205.524 24.767C204.956 25.5625 204.143 26.1676 203.087 26.5824C202.036 26.9972 200.771 27.2045 199.294 27.2045C197.777 27.2045 196.453 26.9801 195.322 26.5312C194.197 26.0824 193.322 25.392 192.697 24.4602C192.078 23.5227 191.766 22.3239 191.76 20.8636H196.26C196.288 21.3977 196.422 21.8466 196.661 22.2102C196.899 22.5739 197.234 22.8494 197.666 23.0369C198.104 23.2244 198.624 23.3182 199.226 23.3182C199.732 23.3182 200.155 23.2557 200.496 23.1307C200.837 23.0057 201.095 22.8324 201.271 22.6108C201.447 22.3892 201.538 22.1364 201.544 21.8523C201.538 21.5852 201.45 21.3523 201.28 21.1534C201.115 20.9489 200.842 20.767 200.462 20.608C200.081 20.4432 199.567 20.2898 198.919 20.1477L197.18 19.7727C195.635 19.4375 194.416 18.8778 193.524 18.0938C192.638 17.304 192.197 16.2273 192.203 14.8636C192.197 13.7557 192.493 12.7869 193.089 11.9574C193.692 11.1222 194.524 10.4716 195.587 10.0057C196.655 9.53977 197.879 9.30682 199.26 9.30682C200.669 9.30682 201.888 9.54261 202.916 10.0142C203.945 10.4858 204.737 11.1506 205.294 12.0085C205.857 12.8608 206.141 13.858 206.146 15H201.612ZM208.188 27V9.54545H220.767V13.3636H212.926V16.3636H220.119V20.1818H212.926V23.1818H220.733V27H208.188Z" fill="#08183A"/>
</svg>
